<svg xmlns="http://www.w3.org/2000/svg" width="28" height="28" viewBox="0 0 28 28">
  <g fill="#000000" fill-rule="evenodd">
    <polygon points="0 14.014 3.466 14.014 3.466 17.531 0 17.531"/>
    <polygon points="3.52 10.497 6.986 10.497 6.986 14.014 3.52 14.014"/>
    <polygon points="6.986 7.034 10.453 7.034 10.453 10.551 6.986 10.551"/>
    <polygon points="3.52 3.517 6.986 3.517 6.986 7.034 3.52 7.034"/>
    <polygon points="0 0 3.466 0 3.466 3.517 0 3.517"/>
    <polygon points="17.385 14.014 20.851 14.014 20.851 17.531 17.385 17.531"/>
    <polygon points="20.797 10.497 24.263 10.497 24.263 14.014 20.797 14.014"/>
    <polygon points="24.317 7.034 27.783 7.034 27.783 10.551 24.317 10.551"/>
    <polygon points="20.797 3.517 24.263 3.517 24.263 7.034 20.797 7.034"/>
    <polygon points="17.385 0 20.851 0 20.851 3.517 17.385 3.517"/>
    <g transform="translate(0 20.688)">
      <polygon points="3.845 6.331 1.3 6.331 1.3 5.032 3.845 5.032"/>
      <polygon points="1.3 2.597 0 2.597 0 1.299 1.3 1.299"/>
      <polygon points="3.845 1.299 1.3 1.299 1.3 0 3.845 0"/>
      <polygon points="11.427 6.331 8.882 6.331 8.882 5.032 11.427 5.032"/>
      <polygon points="8.936 2.597 7.636 2.597 7.636 1.299 8.936 1.299"/>
      <polygon points="11.427 1.299 8.882 1.299 8.882 0 11.427 0"/>
      <polygon points="11.409 5.14 11.409 3.86 8.882 3.86 8.882 2.579 11.409 2.579 11.409 1.299 12.673 1.299 12.673 5.14"/>
      <polygon points="19.064 1.299 20.364 1.299 20.364 2.597 19.064 2.597"/>
      <polygon points="19.064 1.299 16.518 1.299 16.518 0 19.064 0"/>
      <polygon points="16.518 2.489 19.064 2.489 19.064 3.788 16.518 3.788"/>
      <polygon points="19.064 3.788 20.364 3.788 20.364 5.086 19.064 5.086"/>
      <polygon points="19.064 6.331 16.518 6.331 16.518 5.032 19.064 5.032"/>
      <polygon points="15.219 1.299 16.518 1.299 16.518 2.597 15.219 2.597"/>
      <polygon points="15.219 3.788 16.518 3.788 16.518 5.086 15.219 5.086"/>
      <polygon points="22.855 0 22.855 5.065 25.373 5.065 25.373 6.331 26.632 6.331 26.632 5.065 27.892 5.065 27.892 3.798 26.632 3.798 26.632 0 25.373 0 25.373 3.798 24.114 3.798 24.114 0"/>
      <polygon points="3.827 5.14 3.827 3.86 1.3 3.86 1.3 2.579 3.827 2.579 3.827 1.299 5.091 1.299 5.091 5.14"/>
    </g>
  </g>
</svg>
