<svg xmlns="http://www.w3.org/2000/svg" width="336" height="188" viewBox="0 0 336 188">
  <g>
    <path d="M.000729156581 57.2683225L.000729156581 3.74786483C.000729156581 2.1765324.959570061.871342115 4.36108551.871342115L6.36626611.871342115C9.76413578.871342115 10.6354779 2.1765324 10.6354779 3.74786483L10.6354779 57.2683225C10.6354779 58.8360091 9.76413578 60.1448452 6.36626611 60.1448452L4.36108551 60.1448452C.959570061 60.1448452.000729156581 58.8360091.000729156581 57.2683225M25.8914388 57.4429555L25.8914388 8.45457056C25.8914388 3.57286725 29.380453.871342115 34.3478322.871342115L36.265514.871342115C40.7972222.871342115 43.4987473 2.78902392 45.4164291 8.0188995L63.8987256 50.7310691C64.0719002 51.254239 64.4200725 51.4274137 64.7700677 51.4274137 65.1182399 51.4274137 65.3789134 51.254239 65.3789134 50.7310691L65.3789134 3.57286725C65.3789134 2.0908565 66.1645796.871342115 69.1286011.871342115L70.3481155.871342115C73.3103141.871342115 74.0978032 2.0908565 74.0978032 3.57286725L74.0978032 52.5612522C74.0978032 57.4429555 70.7837866 60.1444806 65.8145845 60.1444806L63.8112268 60.1444806C59.1920198 60.1444806 56.5743477 58.2267988 54.6566659 52.9987461L36.1780152 10.2865765C35.9173418 9.76158373 35.5673466 9.58658615 35.2191743 9.58658615 34.9585008 9.58658615 34.6960045 9.76158373 34.6960045 10.2865765L34.6960045 57.4429555C34.6960045 58.8356445 33.9121612 60.1444806 30.8606409 60.1444806L29.6393036 60.1444806C26.7627809 60.1444806 25.8914388 58.8356445 25.8914388 57.4429555M89.4802728 57.4429555L89.4802728 8.45457056C89.4802728 3.57286725 92.969287.871342115 97.9366662.871342115L99.854348.871342115C104.386056.871342115 107.087581 2.78902392 109.005263 8.0188995L127.48756 50.7310691C127.660734 51.254239 128.008907 51.4274137 128.358902 51.4274137 128.707074 51.4274137 128.967747 51.254239 128.967747 50.7310691L128.967747 3.57286725C128.967747 2.0908565 129.753414.871342115 132.717435.871342115L133.93695.871342115C136.899148.871342115 137.686637 2.0908565 137.686637 3.57286725L137.686637 52.5612522C137.686637 57.4429555 134.372621 60.1444806 129.403418 60.1444806L127.400061 60.1444806C122.780854 60.1444806 120.163182 58.2267988 118.2455 52.9987461L99.7668492 10.2865765C99.5061758 9.76158373 99.1561806 9.58658615 98.8080083 9.58658615 98.5473349 9.58658615 98.2848385 9.76158373 98.2848385 10.2865765L98.2848385 57.4429555C98.2848385 58.8356445 97.5009952 60.1444806 94.4494749 60.1444806L93.2281376 60.1444806C90.3516149 60.1444806 89.4802728 58.8356445 89.4802728 57.4429555M247.295277 130.678349L247.295277 81.6899639C247.295277 76.8082605 250.784292 74.1067354 255.751671 74.1067354L257.669353 74.1067354C262.201061 74.1067354 264.902586 76.0244172 266.820268 81.2542928L285.302564 123.966462C285.475739 124.489632 285.823911 124.662807 286.173906 124.662807 286.522079 124.662807 286.782752 124.489632 286.782752 123.966462L286.782752 76.8082605C286.782752 75.3262498 287.568418 74.1067354 290.53244 74.1067354L291.751954 74.1067354C294.714153 74.1067354 295.501642 75.3262498 295.501642 76.8082605L295.501642 125.796645C295.501642 130.678349 292.187625 133.379874 287.218423 133.379874L285.215065 133.379874C280.595859 133.379874 277.978186 131.462192 276.060505 126.234139L257.581854 83.5219698C257.32118 82.996977 256.971185 82.8219794 256.623013 82.8219794 256.36234 82.8219794 256.099843 82.996977 256.099843 83.5219698L256.099843 130.678349C256.099843 132.071038 255.316 133.379874 252.26448 133.379874L251.043142 133.379874C248.16662 133.379874 247.295277 132.071038 247.295277 130.678349M253.463942 5.3135463L253.463942 41.9244982C253.463942 42.9963584 252.867857 43.8913981 250.541847 43.8913981L249.171033 43.8913981C246.905179 43.8913981 246.248938 42.9963584 246.248938 41.9244982L246.248938 25.706233 228.599703 25.706233 228.599703 41.9244982C228.599703 42.9963584 228.003617 43.8913981 225.619275 43.8913981L224.306793 43.8913981C221.980784 43.8913981 221.324543 42.9963584 221.324543 41.9244982L221.324543 5.3135463C221.324543 4.24004552 221.980784 3.34500582 224.306793 3.34500582L225.619275 3.34500582C228.003617 3.34500582 228.599703 4.24004552 228.599703 5.3135463L228.599703 20.5182839 246.248938 20.5182839 246.248938 5.3135463C246.248938 4.24004552 246.905179 3.34500582 249.171033 3.34500582L250.541847 3.34500582C252.867857 3.34500582 253.463942 4.24004552 253.463942 5.3135463M328.658215 32.0863531C328.658215 27.7314654 326.510848 25.4072788 320.726814 25.4072788L312.259483 25.4072788 312.259483 37.7500768C312.259483 38.4063177 312.618593 38.8237599 313.571965 38.8237599L321.262744 38.8237599C326.689492 38.8237599 328.658215 36.4995733 328.658215 32.0863531M312.259483 9.54630025L312.259483 20.9357261 320.369527 20.9357261C325.854608 20.9357261 327.82333 18.6097166 327.82333 14.4954505 327.82333 10.2626966 326.035074 8.47444008 320.726814 8.47444008L313.571965 8.47444008C312.618593 8.47444008 312.259483 8.89005933 312.259483 9.54630025M335.871396 32.5621277C335.871396 39.7187996 331.758953 43.8913981 323.111156 43.8913981L311.127467 43.8913981C306.894714 43.8913981 305.223122 42.2234524 305.223122 39.35969L305.223122 7.87835457C305.223122 5.01477439 306.894714 3.34682871 311.127467 3.34682871L322.51507 3.34682871C330.743602 3.34682871 334.560737 6.68436067 334.560737 13.6623892 334.560737 18.3107624 332.415194 21.4115007 328.479571 22.8424705 333.1881 24.0947969 335.871396 27.0187148 335.871396 32.5621277M41.6979128 74.3482685L39.4302359 74.3482685C36.1326252 74.3482685 35.0461819 75.5167419 34.3097338 77.3214045L14.1886579 123.965551C14.0227748 124.459555 13.6964772 124.634552 13.3592423 124.654604L10.7069352 124.654604C10.5173545 124.634552 10.3423569 124.512418 10.27491 124.222579L10.27491 76.9841696C10.27491 75.4128371 9.40356785 74.105824 6.00569818 74.105824L4.41978262 74.105824C1.01826717 74.105824.0594262614 75.4128371.0594262614 76.9841696.0594262614 76.9841696.0357286725 122.806192.0357286725 126.320727.0357286725 131.44852 4.04608987 133.380785 8.57779802 133.380785L15.0855205 133.380785C19.4130648 133.211256 21.7645948 131.147743 23.8244621 126.233228 25.169756 123.021293 45.1705211 77.3214045 45.1705211 77.3214045 45.691868 75.7063227 45.0830223 74.3482685 41.6979128 74.3482685M114.084568 130.503533L114.084568 81.9508196 97.6949508 81.9508196C96.3897605 81.9508196 95.2559221 81.2544751 95.2559221 78.7261246L95.2559221 77.4172886C95.2559221 74.890761 96.3897605 74.1069177 97.6949508 74.1069177L141.019612 74.1069177C142.324802 74.1069177 143.458641 74.890761 143.458641 77.4172886L143.458641 78.7261246C143.458641 81.2544751 142.324802 81.9508196 141.019612 81.9508196L124.631818 81.9508196 124.631818 130.503533C124.631818 132.07122 123.758653 133.380056 120.273284 133.380056L118.355603 133.380056C114.95591 133.380056 114.084568 132.07122 114.084568 130.503533M154.325261 130.503533L154.325261 76.9834404C154.325261 75.412108 155.284102 74.1069177 158.685618 74.1069177L160.690798 74.1069177C164.088668 74.1069177 164.96001 75.412108 164.96001 76.9834404L164.96001 130.503533C164.96001 132.07122 164.088668 133.380056 160.690798 133.380056L158.685618 133.380056C155.284102 133.380056 154.325261 132.07122 154.325261 130.503533M177.622179 0C159.404201 0 150.337139 9.76121915 150.337139 29.6362047L150.337139 31.3788889C150.337139 44.0406929 153.95011 52.570002 161.279957 57.0853042 161.985416 57.5191523 163.008058 57.305874 163.352584 56.4946873 163.992419 54.988979 165.654896 51.1754901 165.977548 50.4135215 166.298377 49.6497299 166.167129 49.0244782 165.580158 48.3135505 162.736447 44.8646399 161.495058 39.3522161 161.495058 31.3788889L161.495058 29.6362047C161.495058 14.4679249 166.028589 8.01853493 177.622179 8.01853493 189.301809 8.01853493 193.749664 14.4679249 193.749664 29.6362047L193.749664 31.3788889C193.749664 46.6346675 189.301809 52.9108827 177.622179 52.9108827 177.365151 52.9108827 177.113592 52.8962996 176.865679 52.8981225 175.890432 52.9108827 175.463875 53.5124369 175.168567 54.1960212 174.541492 55.6506886 173.805044 57.305874 173.015732 59.1160053 172.600113 60.0712004 173.259999 60.8094714 174.085769 60.865981 175.221431 60.9461883 176.395373 61.017281 177.622179 61.017281 196.013695 61.017281 204.907582 51.3395503 204.907582 31.3788889L204.907582 29.6362047C204.907582 9.76121915 195.838698 0 177.622179 0M206.706776 73.2357579C188.488799 73.2357579 179.421737 82.9973416 179.421737 102.872327L179.421737 104.615011C179.421737 117.276815 183.034708 125.806124 190.364554 130.321427 191.070013 130.755275 192.092656 130.541996 192.437182 129.73081 193.077017 128.225101 194.739494 124.411613 195.062146 123.649644 195.382975 122.885852 195.251726 122.260601 194.664755 121.549673 191.821045 118.100762 190.579656 112.588339 190.579656 104.615011L190.579656 102.872327C190.579656 87.7040473 195.113187 81.2546574 206.706776 81.2546574 218.386042 81.2546574 222.833897 87.7040473 222.833897 102.872327L222.833897 104.615011C222.833897 119.87079 218.386042 126.147005 206.706776 126.147005 206.449749 126.147005 206.19819 126.132422 205.950276 126.134245 204.975029 126.147005 204.548473 126.748559 204.253164 127.432144 203.62609 128.886811 202.889642 130.541996 202.10033 132.352128 201.68471 133.307323 202.344597 134.045594 203.170367 134.102104 204.306028 134.182311 205.47997 134.253403 206.706776 134.253403 225.097928 134.253403 233.991816 124.575673 233.991816 104.615011L233.991816 102.872327C233.991816 82.9973416 224.922931 73.2357579 206.706776 73.2357579M271.053022 29.0439472L271.053022 5.3135463C271.053022 4.24004552 270.456936 3.34500582 268.072594 3.34500582L266.760112 3.34500582C264.435926 3.34500582 263.779685 4.24004552 263.779685 5.3135463L263.779685 28.9837918C263.779685 35.4313589 265.739293 40.0177538 270.12517 42.4567826 270.511623 42.6718837 271.506922 42.668238 271.835042 41.9044464 272.163163 41.1424778 273.32799 38.435484 273.541269 37.948772 273.754547 37.4602371 273.663402 36.873266 273.120181 36.2571287 271.712908 34.6584529 271.053022 32.3032772 271.053022 29.0439472M292.521214 3.34500582L291.1504 3.34500582C288.882723 3.34500582 288.226482 4.23822263 288.226482 5.31263485L288.226482 29.0448587C288.226482 34.9054547 286.430934 37.7291136 281.884643 38.3507196 280.985957 38.4728533 280.515651 38.930399 280.213051 39.6176291 279.729985 40.7168327 279.203169 41.9162952 278.654479 43.1813819 278.364639 43.8485602 278.814894 44.4883951 279.522175 44.4883951 290.731135 44.4883951 295.501642 39.0634701 295.501642 28.9847033L295.501642 5.31263485C295.501642 4.23822263 294.845401 3.34500582 292.521214 3.34500582M95.9139859 130.328718L78.5691737 80.2958165C76.9996641 75.4122903 74.5569896 73.2357579 70.0252814 73.2357579L68.891443 73.2357579C63.7490662 73.2357579 61.6563868 75.4122903 60.0887001 80.3814924L42.5688904 130.328718C42.1313964 131.987549 42.6527434 133.380238 46.0542588 133.380238L47.9719406 133.380238C51.3716332 133.380238 52.7679681 131.987549 53.2018162 130.328718L68.370096 83.2580151C68.5450936 82.7348452 68.8039442 82.6491693 69.0664405 82.6491693 69.4164357 82.6491693 69.6752863 82.7348452 69.8502839 83.2580151L77.9566822 109.059221 68.337284 109.059221C67.2599551 109.059221 66.8971997 110.131081 66.8971997 110.131081 66.8971997 110.131081 65.7651841 113.645616 65.3732625 114.888828 65.1763902 115.515902 65.4115432 116.381776 66.2555419 116.381776L80.3118579 116.381776 84.6685685 130.328718C85.1060624 131.987549 86.4112527 133.380238 89.7252694 133.380238L92.3411186 133.380238C95.7389883 133.380238 96.4389786 131.987549 95.9139859 130.328718M48.0590749 180.849061C49.0999459 180.849061 49.7598326 180.189174 49.7598326 179.079033L49.7598326 165.097456C49.7598326 163.987315 49.0999459 163.327428 48.0590749 163.327428 47.0182038 163.327428 46.3236822 163.987315 46.3236822 165.097456L46.3236822 179.079033C46.3236822 180.189174 47.0182038 180.849061 48.0590749 180.849061M48.0590749 159.533991C49.2949953 159.533991 50.2556591 158.591556 50.2556591 157.302772 50.2556591 156.0468 49.2949953 155.106188 48.0590749 155.106188 46.7885195 155.106188 45.8278557 156.0468 45.8278557 157.302772 45.8278557 158.591556 46.7885195 159.533991 48.0590749 159.533991M104.160382 181.299315C109.607182 181.299315 113.909206 177.484003 113.909206 172.175744 113.909206 166.728944 109.607182 162.911809 104.160382 162.911809 98.5404079 162.911809 94.3076539 166.728944 94.3076539 172.175744 94.3076539 177.484003 98.5404079 181.299315 104.160382 181.299315M104.195017 178.317065C100.241166 178.317065 97.5688067 175.713976 97.5688067 172.175744 97.5688067 168.462514 100.241166 165.826613 104.195017 165.826613 108.046787 165.826613 110.648053 168.462514 110.648053 172.175744 110.648053 175.713976 108.046787 178.317065 104.195017 178.317065M125.254882 187.406002C131.673283 187.406002 134.484182 183.763865 134.484182 177.414734L134.484182 164.264395C134.484182 163.675601 134.170644 163.398521 133.58185 163.398521L133.235501 163.398521C132.506344 163.398521 131.500108 163.81414 131.326934 165.062821 129.764716 163.744871 127.682974 162.911809 125.393422 162.911809 120.050527 162.911809 116.304485 166.936754 116.304485 171.967934 116.304485 176.858752 119.946622 180.675886 125.393422 180.675886 127.579069 180.675886 129.660811 179.94673 131.223029 178.732684 131.223029 182.132377 129.556906 184.421928 125.393422 184.421928 122.653616 184.421928 120.848953 183.138613 120.050527 182.374821 119.808082 182.167012 119.669543 182.063107 119.356005 182.063107 118.732577 182.063107 117.86488 182.826898 117.86488 184.006309 117.86488 185.566704 121.160668 187.406002 125.254882 187.406002M125.776229 177.761083C122.062999 177.761083 119.600273 175.402261 119.600273 171.933299 119.600273 168.393244 122.062999 165.826613 125.776229 165.826613 127.613704 165.826613 129.591541 166.659674 130.701682 167.94299 131.119124 168.393244 131.326934 168.845321 131.326934 169.46875L131.326934 174.326755C131.326934 174.915549 131.048031 175.436896 130.632412 175.921785 129.556906 177.103019 127.579069 177.761083 125.776229 177.761083M63.5336004 162.911809C60.5148922 162.911809 58.1214357 163.987315 56.4899478 165.270631 56.420678 163.95268 55.9339659 163.398521 54.5813805 163.398521L54.0618564 163.398521C53.5405095 163.398521 53.26343 163.606331 53.26343 164.22976L53.26343 179.565746C53.26343 180.468077 53.9233167 180.849061 54.8949178 180.849061 55.8646961 180.849061 56.4899478 180.468077 56.4899478 179.565746L56.4899478 169.745829C56.4899478 169.018496 56.8709321 168.358609 57.426914 167.908355 58.6409597 166.936754 60.4802572 165.999787 62.7351739 165.999787 66.0655966 165.999787 67.7317194 167.839085 67.7317194 171.030968L67.7317194 179.565746C67.7317194 180.468077 68.3897832 180.849061 69.3613844 180.849061 70.3329855 180.849061 70.9582373 180.468077 70.9582373 179.565746L70.9582373 170.927063C70.9582373 165.480263 68.3205134 162.911809 63.5336004 162.911809M84.3491979 162.911809C81.3323126 162.911809 78.9370332 163.987315 77.3073682 165.270631 77.2380983 163.95268 76.7513863 163.398521 75.3988009 163.398521L74.8774539 163.398521C74.3579299 163.398521 74.0808504 163.606331 74.0808504 164.22976L74.0808504 179.565746C74.0808504 180.468077 74.7389142 180.849061 75.7105153 180.849061 76.6821165 180.849061 77.3073682 180.468077 77.3073682 179.565746L77.3073682 169.745829C77.3073682 169.018496 77.6883525 168.358609 78.2443344 167.908355 79.4583801 166.936754 81.2958547 165.999787 83.5525943 165.999787 86.883017 165.999787 88.5473169 167.839085 88.5473169 171.030968L88.5473169 179.565746C88.5473169 180.468077 89.2072036 180.849061 90.1788048 180.849061 91.1504059 180.849061 91.7738348 180.468077 91.7738348 179.565746L91.7738348 170.927063C91.7738348 165.480263 89.1379338 162.911809 84.3491979 162.911809M155.091969 163.500603C153.877924 163.500603 153.079497 163.88341 152.663878 164.785742L147.147808 176.997291 141.456741 164.785742C141.041122 163.88341 140.069521 163.500603 138.855475 163.500603 137.676064 163.500603 137.120083 163.95268 137.57216 164.855011L144.962162 179.912095C145.135336 180.293079 145.135336 180.745156 144.927527 181.091506 144.025195 182.792263 142.984324 184.248754 141.179662 184.248754 140.48514 184.248754 139.861711 183.937039 139.480727 183.625325 139.201825 183.415692 139.09792 183.311787 138.786205 183.311787 138.160954 183.311787 137.293257 184.110214 137.293257 185.18572 137.293257 186.088051 138.786205 187.406002 141.179662 187.406002 144.823622 187.406002 146.939999 184.179484 148.812108 180.327714L156.34065 164.855011C156.792727 163.95268 156.236745 163.500603 155.091969 163.500603M13.1229956 171.864941C13.1229956 167.318649 11.6810884 165.399145 7.54130194 165.399145 3.476254 165.399145 2.07262758 167.318649 2.07262758 171.864941L2.07262758 172.606857C2.07262758 177.187784 3.40151545 179.110934 7.54130194 179.110934 11.6810884 179.110934 13.1229956 177.187784 13.1229956 172.606857L13.1229956 171.864941zM15.2667159 171.903221L15.2667159 172.606857C15.2667159 177.964335 13.1959112 181.06872 7.54130194 181.06872 1.88486976 181.06872 0 178.002616 0 172.606857L0 156.195366C0 155.787038.335412027 155.568291.887748138 155.568291L1.33071076 155.568291C1.77731917 155.568291 2.07262758 155.714122 2.07262758 156.195366L2.07262758 166.099135C3.10802993 164.363742 4.95461897 163.437713 7.80015253 163.437713 13.1576305 163.437713 15.2667159 166.507463 15.2667159 171.903221L15.2667159 171.903221zM32.7471512 164.437205L26.3159902 181.030986C24.7282517 185.134314 22.473335 187.352773 19.4418665 187.352773L18.4082871 187.352773C18.0746979 187.352773 17.7775666 187.0921 17.7775666 186.614502L17.7775666 186.242632C17.7775666 185.761389 18.0746979 185.502538 18.4082871 185.502538L19.1830159 185.502538C21.6585025 185.502538 23.211606 183.841884 24.4311204 180.7375L24.7282517 179.922668 18.3317256 164.437205C18.2223521 164.067158 18.3700063 163.81013 18.9241653 163.81013L19.5166051 163.81013C20.1072219 163.81013 20.4772689 164.067158 20.6249231 164.437205L25.8001119 176.856564 30.566973 164.437205C30.7164501 164.067158 31.0846742 163.81013 31.6388332 163.81013L32.1547115 163.81013C32.7088705 163.81013 32.8583476 164.067158 32.7471512 164.437205"/>
  </g>
</svg>
