<svg xmlns="http://www.w3.org/2000/svg" width="236" height="118" viewBox="0 0 236 118">
  <g fill="#000000" fill-rule="evenodd" transform="translate(.809 .621)">
    <path d="M191.191651,58.2052657 L191.191651,-1.42108547e-14 L207.508584,-1.42108547e-14 L216.551207,20.4322089 C216.977838,21.637565 217.461354,23.0204391 218.002734,24.5778887 C218.543134,26.1372998 219.139437,27.9340553 219.792624,29.9691358 L221.413823,35.0965581 C220.835174,30.0446545 220.395793,25.7224376 220.094699,22.1279459 C219.792624,18.534435 219.641587,15.5185927 219.641587,13.080419 L219.641587,-1.42108547e-14 L234.796317,-1.42108547e-14 L234.796317,58.2052657 L218.676517,58.2052657 L210.881423,36.9423517 C210.002661,34.6552153 206.382669,26.4629127 205.850116,24.6534073 C206.476822,28.7510298 207.520353,58.2052657 207.520353,58.2052657 L191.191651,58.2052657 Z"/>
    <polygon points="45.318 0 45.318 58.205 74.534 58.205 74.534 44.257 61.038 44.257 61.038 35.322 73.138 35.322 73.138 21.375 61.038 21.375 61.038 13.948 74.534 13.948 74.534 0"/>
    <path d="M125.184426,58.2052657 L108.182921,58.2052657 L100.41725,37.4709822 C100.341731,37.1198695 100.210309,36.6549885 100.022003,36.0763391 C99.8336969,35.4986704 99.6002756,34.8072334 99.3246815,34.0030088 L99.4374691,37.8485755 L99.4374691,58.2052657 L83.7923582,58.2052657 L83.7923582,-1.42108547e-14 L99.8896003,-1.42108547e-14 C106.977565,-1.42108547e-14 112.279563,1.39464316 115.798536,4.18392949 C120.27081,7.75292139 122.508908,12.8303248 122.508908,19.4141782 C122.508908,26.4511436 119.504835,31.3137602 113.49865,34.0030088 L125.184426,58.2052657 Z M99.5129878,26.1245499 L100.568287,26.1245499 C102.377793,26.1245499 103.885224,25.4331129 105.09156,24.0512196 C106.298878,22.6693264 106.901066,20.9098398 106.901066,18.7727601 C106.901066,14.4250434 104.626679,12.2516754 100.077907,12.2516754 L99.5129878,12.2516754 L99.5129878,26.1245499 Z"/>
    <polygon points="130.693 0 130.693 58.205 158.562 58.205 158.562 44.257 146.762 44.257 146.762 0"/>
    <polygon points="165.668 58.205 181.737 58.205 181.737 0 165.668 0"/>
    <path d="M86.8346811,116.40857 L70.3500381,116.40857 L69.1819509,109.020492 L58.5887436,109.020492 L57.306888,116.40857 L41.0595894,116.40857 L55.0452515,58.204285 L74.507487,58.204285 L86.8346811,116.40857 Z M67.3341958,96.7688165 L66.3171459,89.9829262 C66.2916461,89.9584071 66.2416272,89.6190636 66.1661086,88.9658763 C66.115109,88.4127267 65.8512841,86.2266088 65.3746339,82.4055611 C65.3236343,81.9789298 65.2608655,81.3943958 65.1863276,80.6529399 C65.110809,79.9114841 65.0097905,78.9748566 64.884253,77.8440384 L64.3938722,72.3409844 C64.3438533,72.8686342 64.2752,73.4590527 64.1869314,74.1132208 C64.0986629,74.7664081 64.0045098,75.4833449 63.9044721,76.261089 C63.727935,77.8195193 63.6023975,78.9003187 63.5278596,79.5034872 C63.4513602,80.1066557 63.4013413,80.471499 63.3768223,80.5960558 L62.2832729,87.645771 L60.7003235,96.7688165 L67.3341958,96.7688165 Z"/>
    <polygon points="92.087 58.204 92.087 116.409 119.605 116.409 119.605 102.461 107.806 102.461 107.806 58.204"/>
    <polygon points="125.206 58.204 125.206 116.409 152.725 116.409 152.725 102.461 140.926 102.461 140.926 58.204"/>
    <polygon points="158.326 58.204 158.326 116.409 187.541 116.409 187.541 102.461 174.046 102.461 174.046 93.526 186.147 93.526 186.147 79.579 174.046 79.579 174.046 72.153 187.541 72.153 187.541 58.204"/>
    <path d="M221.264748 116.40857L205.545099 116.40857 205.545099 91.7551626 191.192632 58.204285 207.520353 58.204285 210.332197 66.8369496C210.885346 68.5209175 211.381612 70.1421166 211.820993 71.6995662 212.261355 73.2579966 212.656602 74.7526774 213.008695 76.1855703 213.587345 74.0504521 214.089495 72.2095623 214.516126 70.6638818 214.943738 69.1172206 215.320351 67.8677302 215.647925 66.9124683L218.674556 58.204285 234.798279 58.204285 221.264748 91.7551626 221.264748 116.40857zM28.1625728 58.204285L24.4307744 77.4674259C23.8776248 80.3577307 22.0514465 91.2559549 21.9210052 91.8659887 21.8690248 92.1082368 21.5355658 91.6845478 21.4561241 91.5168375 20.9981084 90.5576525 19.9938084 79.3377385 19.2307758 74.8438883L16.5140658 58.204285 0 58.204285.212825293 59.1340471 11.734814 109.395143C12.5017696 113.333882 15.9314934 116.31834 20.0742309 116.403666L20.0801154 116.40857 29.3689097 116.40857 45.2395958 58.204285 28.1625728 58.204285zM22.0014276 58.2023234C27.2504644 58.2023234 31.4824512 56.6703736 34.6983688 53.6054933 37.9378248 50.5670935 39.5580432 46.5479319 39.5580432 41.5499702 39.5580432 37.5818083 38.5968967 34.5424277 36.6755845 32.4328093 34.7542723 30.3231908 31.7335262 28.9667974 27.6153077 28.3636289 34.8484254 27.7614412 38.4654746 23.8177983 38.4654746 16.5336811 38.4654746 11.6367378 36.7952374 7.64307607 33.454763 4.55367666 30.1643074 1.5397959 25.103577.0333458984 18.2725716.0333458984L0 .0333458984 0 58.2023234 22.0014276 58.2023234zM15.7098412 34.4296401L16.9534471 34.4296401C18.9875469 34.4296401 20.5891308 34.9327709 21.757218 35.9380517 22.9253052 36.9443132 23.5088584 38.3369948 23.5088584 40.1160966 23.5088584 41.8961791 22.9253052 43.3143605 21.757218 44.3716217 20.5891308 45.4288828 19.0257966 45.9575134 17.0662347 45.9575134 16.9161781 45.9575134 16.7268911 45.9516288 16.5013159 45.9378981 16.2757407 45.9251482 16.0119158 45.9065138 15.7098412 45.881014L15.7098412 34.4296401zM15.7098412 12.2016565C16.0874345 12.1771375 16.4071628 12.158503 16.6709877 12.1447724 16.9348126 12.1330032 17.1545032 12.1261379 17.3300596 12.1261379 21.0226274 12.1261379 22.868421 13.809125 22.868421 17.1750992 22.868421 18.7570679 22.3221367 19.9879238 21.2295682 20.8666863 20.1369996 21.7464296 18.6491841 22.1848301 16.7651408 22.1848301L15.7098412 22.1848301 15.7098412 12.2016565z"/>
  </g>
</svg>
