<svg xmlns="http://www.w3.org/2000/svg" width="500" height="34" viewBox="0 0 500 34">
  <g>
    <g transform="translate(188.99)">
      <polygon points=".05 27.3 6.726 27.3 6.726 34 .05 34"/>
      <polygon points="6.726 20.601 13.403 20.601 13.403 27.3 6.726 27.3"/>
      <polygon points="13.403 13.901 20.079 13.901 20.079 20.601 13.403 20.601"/>
      <polygon points="6.726 7.202 13.403 7.202 13.403 13.901 6.726 13.901"/>
      <polygon points=".05 .502 6.726 .502 6.726 7.202 .05 7.202"/>
      <polygon points="33.432 27.3 40.108 27.3 40.108 34 33.432 34"/>
      <polygon points="40.108 20.601 46.784 20.601 46.784 27.3 40.108 27.3"/>
      <polygon points="46.784 13.901 53.461 13.901 53.461 20.601 46.784 20.601"/>
      <polygon points="40.108 7.202 46.784 7.202 46.784 13.901 40.108 13.901"/>
      <polygon points="33.432 .502 40.108 .502 40.108 7.202 33.432 7.202"/>
    </g>
    <g fill="currentColor" transform="translate(283)">
      <polygon points=".52 34 .52 27.3 20.767 27.3 20.767 34"/>
      <polygon points="7.269 7.202 7.269 .502 27.516 .502 27.516 7.202"/>
      <polygon points="7.269 13.901 20.767 13.901 20.767 20.601 7.269 20.601"/>
      <polygon points="20.767 20.601 27.516 20.601 27.516 27.3 20.767 27.3"/>
      <polygon points=".52 7.202 7.269 7.202 7.269 13.901 .52 13.901"/>
      <polygon points="61.262 .502 68.012 .502 68.012 27.3 61.262 27.3"/>
      <polygon points="61.262 34 47.764 34 47.764 27.3 61.262 27.3"/>
      <polygon points="41.015 .502 47.764 .502 47.764 27.3 41.015 27.3"/>
      <polygon points="81.51 34 81.51 .502 88.259 .502 88.259 34"/>
      <polygon points="108.507 34 108.507 .502 115.256 .502 115.256 34"/>
      <polygon points="101.758 7.202 108.507 7.202 108.507 13.901 101.758 13.901"/>
      <polygon points="95.008 13.901 101.758 13.901 101.758 20.601 95.008 20.601"/>
      <polygon points="88.259 7.202 95.008 7.202 95.008 13.901 88.259 13.901"/>
      <polygon points="128.754 34 128.754 .502 135.504 .502 135.504 34"/>
      <polygon points="155.751 34 155.751 .502 162.5 .502 162.5 34"/>
      <polygon points="149.002 7.202 155.751 7.202 155.751 13.901 149.002 13.901"/>
      <polygon points="142.253 13.901 149.002 13.901 149.002 20.601 142.253 20.601"/>
      <polygon points="135.504 7.202 142.253 7.202 142.253 13.901 135.504 13.901"/>
      <polygon points="175.999 34 175.999 .502 182.748 .502 182.748 34"/>
      <polygon points="202.995 34 202.995 7.202 196.246 7.202 196.246 .502 216.494 .502 216.494 7.202 209.745 7.202 209.745 34"/>
    </g>
    <g fill="currentColor">
      <polygon points="20.301 34 6.803 34 6.803 27.3 20.301 27.3"/>
      <polygon points="6.803 13.901 .054 13.901 .054 7.202 6.803 7.202"/>
      <polygon points="20.301 7.202 6.803 7.202 6.803 .502 20.301 .502"/>
      <polygon points="20.301 27.3 20.301 20.601 6.803 20.601 6.803 13.901 20.301 13.901 20.301 7.202 27.051 7.202 27.051 27.3"/>
      <polygon points="60.796 34 47.298 34 47.298 27.3 60.796 27.3"/>
      <polygon points="47.298 13.901 40.549 13.901 40.549 7.202 47.298 7.202"/>
      <polygon points="60.796 7.202 47.298 7.202 47.298 .502 60.796 .502"/>
      <polygon points="60.796 27.3 60.796 20.601 47.298 20.601 47.298 13.901 60.796 13.901 60.796 7.202 67.546 7.202 67.546 27.3"/>
      <polygon points="101.292 7.202 108.041 7.202 108.041 13.901 101.292 13.901"/>
      <polygon points="101.292 7.202 87.793 7.202 87.793 .502 101.292 .502"/>
      <polygon points="87.793 13.901 101.292 13.901 101.292 20.601 87.793 20.601"/>
      <polygon points="101.292 20.601 108.041 20.601 108.041 27.3 101.292 27.3"/>
      <polygon points="101.292 34 87.793 34 87.793 27.3 101.292 27.3"/>
      <polygon points="81.044 7.202 87.793 7.202 87.793 13.901 81.044 13.901"/>
      <polygon points="81.044 20.601 87.793 20.601 87.793 27.3 81.044 27.3"/>
      <polygon points="121.539 .502 121.539 27.3 135.038 27.3 135.038 34 141.787 34 141.787 27.3 148.536 27.3 148.536 20.601 141.787 20.601 141.787 .502 135.038 .502 135.038 20.601 128.288 20.601 128.288 .502"/>
    </g>
  </g>
</svg>
