<svg xmlns="http://www.w3.org/2000/svg" width="430" height="121" viewBox="0 0 430 121">
  <g transform="translate(0 .608)">
    <path d="M18.3593877,41.2549226 L13.2923267,41.2549226 L13.2923267,36.4293714 L25.2563497,36.4293714 L25.2563497,49.7356314 C19.6706619,50.5638861 18.6008975,51.0809647 12.6034046,51.0809647 C4.84567699,50.839455 0.122303029,45.9101784 0.122303029,38.1168436 C0.122303029,30.3266051 4.84567699,25.3957804 12.6034046,25.1558188 C18.6365047,24.980879 24.9792327,25.8788 25.082958,33.1194489 L18.1890923,33.1194489 C17.8438572,30.7058993 15.9473862,29.9813699 13.6716209,29.9813699 C9.01791325,29.9813699 7.362952,34.0854881 7.362952,38.1168436 C7.362952,43.0120611 9.81056073,46.2554136 14.7754445,46.2554136 C16.0511115,46.2554136 17.3267786,46.0479628 18.3593877,45.838964 L18.3593877,41.2549226"/>
    <polyline points="35.477 30.497 27.859 30.497 27.859 25.671 50.166 25.671 50.166 30.497 42.373 30.497 42.373 50.564 35.477 50.564 35.477 30.497"/>
    <polyline points="52.901 50.564 52.901 25.671 71.863 25.671 71.863 30.497 59.795 30.497 59.795 35.635 70.897 35.635 70.897 40.464 59.795 40.464 59.795 45.738 71.863 45.738 71.863 50.564 52.901 50.564"/>
    <path d="M91.6653465,33.4987431 C91.493503,31.2554888 89.8029345,29.9813699 86.9760316,29.9813699 C83.0127942,29.9813699 82.2882649,34.6350776 82.2882649,38.3583534 C82.2882649,41.9794519 83.0809123,46.2554136 86.9760316,46.2554136 C89.874149,46.2554136 91.5275621,44.9781984 91.6653465,42.6002559 L98.9059955,42.6002559 C99.0097208,48.8733176 93.0106798,51.0809647 86.9760316,51.0809647 C79.2198522,51.0809647 75.0476159,46.4257089 75.0476159,38.0827845 C75.0476159,29.7398602 79.2198522,25.2223888 86.9760316,25.1558188 C93.0106798,25.1558188 99.0097208,27.2241333 98.9059955,33.4987431 L91.6653465,33.4987431"/>
    <polygon points="112.935 119.411 115.81 119.411 115.81 .348 112.935 .348"/>
    <path d="M141.527827 39.4281179L136.494825 39.4281179 136.494825 37.5657059 143.733926 37.5657059 143.733926 50.0112003C141.527827 50.7016705 139.218003 51.0469057 136.874119 51.0469057 128.771157 51.0469057 129.357902 42.9454911 129.357902 38.1168436 129.357902 33.2897443 128.771157 25.1898778 136.874119 25.1898778 141.631553 25.1898778 144.080709 27.2241333 143.975436 32.0496845L141.769337 32.0496845C141.769337 28.773821 140.354337 27.0507417 136.874119 27.0507417 131.494334 27.0507417 131.565549 31.8422338 131.565549 38.1168436 131.565549 44.3930016 131.494334 49.1860418 136.874119 49.1860418 138.767494 49.1860418 140.354337 48.910473 141.527827 48.4615125L141.527827 39.4281179M158.088277 40.6356668C158.088277 36.7715103 157.465924 34.4647823 154.154454 34.4647823 150.84608 34.4647823 150.225276 36.7715103 150.225276 40.6356668L158.088277 40.6356668zM150.225276 42.2921761L150.225276 43.6328651C150.225276 46.0479628 150.881687 49.25416 154.154454 49.25416 156.744491 49.25416 158.01861 47.5991987 157.984551 45.2553154L160.155043 45.2553154C159.913533 49.4616107 157.639316 50.9091212 154.154454 50.9091212 151.157256 50.9091212 148.155413 49.7031205 148.155413 44.4270607L148.155413 40.1526472C148.155413 35.1180972 150.262431 32.8082729 154.154454 32.8082729 160.155043 32.8082729 160.155043 37.1167454 160.155043 42.2921761L150.225276 42.2921761 150.225276 42.2921761zM166.129314 35.4973914L166.19898 35.4973914C167.061294 33.8439783 168.888099 32.8082729 170.990472 32.8082729L170.990472 34.9106465C168.059844 34.6691367 166.129314 36.4293714 166.129314 39.3599997L166.129314 50.5638861 164.059451 50.5638861 164.059451 33.153508 166.129314 33.153508 166.129314 35.4973914M175.546647 50.5638861L173.478333 50.5638861 173.478333 33.1194489 175.339196 33.1194489 175.339196 35.2899407 175.408863 35.2899407C176.235569 33.8780373 177.61651 32.8082729 179.545492 32.8082729 181.339785 32.8082729 182.92508 33.8068229 183.511825 35.5314505 184.372591 33.8068229 185.855709 32.8082729 187.787787 32.8082729 190.68126 32.8082729 192.199985 34.8069211 192.302162 37.599765L192.302162 50.5638861 190.235396 50.5638861 190.235396 38.1168436C190.19824 36.3922161 189.577436 34.4647823 187.546277 34.4647823 184.923729 34.4647823 183.92363 37.0842345 183.92363 39.3599997L183.92363 50.5638861 181.855316 50.5638861 181.855316 38.1168436C181.821257 36.3922161 181.202001 34.4647823 179.166197 34.4647823 176.546745 34.4647823 175.546647 37.0842345 175.546647 39.3599997L175.546647 50.5638861M205.380846 41.6682759C202.416158 41.7720012 197.935842 41.4267661 197.935842 45.6686686 197.935842 47.6332578 198.934392 49.25416 201.072373 49.25416 203.451864 49.25416 205.380846 47.1177273 205.380846 44.840414L205.380846 41.6682759zM205.521726 48.4274534L205.450512 48.4274534C204.346688 50.0808665 202.657668 50.9091212 200.521235 50.9091212 197.415667 50.9091212 195.728195 48.8067476 195.728195 45.772394 195.728195 39.6696276 201.86502 40.2904316 205.380846 40.0148628L205.380846 38.5658041C205.380846 36.01447 204.622257 34.4647823 201.86502 34.4647823 199.968549 34.4647823 198.452921 35.393666 198.452921 37.4619806L196.245274 37.4619806C196.417117 34.1195471 199.00251 32.8082729 202.036864 32.8082729 203.797099 32.8082729 207.44916 32.9816645 207.44916 37.4279215L207.44916 46.1857473C207.44916 47.4258071 207.44916 48.5296306 207.658159 50.5638861L205.521726 50.5638861 205.521726 48.4274534 205.521726 48.4274534zM213.90645 50.5638861L211.838136 50.5638861 211.838136 33.153508 213.90645 33.153508 213.90645 35.2899407 213.977665 35.2899407C214.976215 33.8439783 216.321548 32.8082729 218.182412 32.8082729 222.490885 32.8082729 222.941393 36.01447 222.941393 38.2917834L222.941393 50.5638861 220.87153 50.5638861 220.87153 38.3939606C220.87153 36.3597051 220.077335 34.4647823 217.665333 34.4647823 215.801373 34.4647823 213.90645 35.7389012 213.90645 39.6355686L213.90645 50.5638861"/>
    <polyline points="239.26 27.534 233.193 27.534 233.193 25.671 247.535 25.671 247.535 27.534 241.466 27.534 241.466 50.564 239.26 50.564 239.26 27.534"/>
    <path d="M257.057746 40.6356668C257.057746 36.7715103 256.436942 34.4647823 253.127019 34.4647823 249.817097 34.4647823 249.197841 36.7715103 249.197841 40.6356668L257.057746 40.6356668zM249.197841 42.2921761L249.197841 43.6328651C249.197841 46.0479628 249.854252 49.25416 253.127019 49.25416 255.715509 49.25416 256.989628 47.5991987 256.957117 45.2553154L259.127608 45.2553154C258.884551 49.4616107 256.611882 50.9091212 253.127019 50.9091212 250.129821 50.9091212 247.131075 49.7031205 247.131075 44.4270607L247.131075 40.1526472C247.131075 35.1180972 249.233448 32.8082729 253.127019 32.8082729 259.127608 32.8082729 259.127608 37.1167454 259.127608 42.2921761L249.197841 42.2921761 249.197841 42.2921761zM270.650412 38.153999C270.754137 35.9804109 269.963038 34.4647823 267.581999 34.4647823 266.30788 34.4647823 265.238116 35.1893116 264.792251 36.4634305 264.513586 37.2545298 264.309232 39.6355686 264.309232 41.9453929 264.309232 45.0819237 264.309232 49.25416 267.515429 49.25416 270.238606 49.25416 270.583842 47.5295325 270.687567 45.4271589L272.755881 45.4271589C272.927725 50.1149256 269.617802 50.9091212 267.998448 50.9091212 262.103133 50.9091212 262.103133 46.2538654 262.103133 41.9453929 262.103133 40.2223135 262.169703 37.4960396 262.618663 36.1878617 263.515036 33.7030976 265.479625 32.8082729 267.860664 32.8082729 270.857862 32.8082729 272.893666 34.4972932 272.720274 38.153999L270.650412 38.153999M276.313506 50.5638861L276.313506 25.6713493 278.381821 25.6713493 278.381821 35.2899407 278.453035 35.2899407C279.451585 33.8439783 280.796919 32.8082729 282.657782 32.8082729 286.967803 32.8082729 287.416764 36.01447 287.416764 38.2917834L287.416764 50.5638861 285.346901 50.5638861 285.346901 38.3939606C285.346901 36.3597051 284.552705 34.4647823 282.140704 34.4647823 280.27984 34.4647823 278.381821 35.7389012 278.381821 39.6355686L278.381821 50.5638861 276.313506 50.5638861"/>
    <polyline points="141.183 63.043 141.183 64.904 132.115 64.904 132.115 74.213 140.769 74.213 140.769 76.074 132.115 76.074 132.115 86.074 141.424 86.074 141.424 87.934 129.909 87.934 129.909 63.043 141.183 63.043"/>
    <path d="M146.811628 87.9344282L144.741765 87.9344282 144.741765 70.5240501 146.811628 70.5240501 146.811628 72.6604828 146.881294 72.6604828C147.881392 71.2145204 149.225177 70.178815 151.087589 70.178815 155.396062 70.178815 155.845022 73.3850121 155.845022 75.6623255L155.845022 87.9344282 153.776708 87.9344282 153.776708 75.7660509C153.776708 73.7302473 152.982512 71.8353244 150.570511 71.8353244 148.706551 71.8353244 146.811628 73.1094433 146.811628 77.0061107L146.811628 87.9344282M158.509371 72.1790114L158.509371 70.5240501 161.300666 70.5240501 161.300666 66.9385588 163.368981 66.0406378 163.368981 70.5240501 166.886354 70.5240501 166.886354 72.1790114 163.368981 72.1790114 163.368981 83.3503868C163.368981 85.658663 163.610491 86.2113488 165.267 86.2113488 165.954374 86.2113488 166.437394 86.1788379 166.886354 86.1076235L166.886354 87.9019173C166.267098 87.9684873 165.57508 88.0056426 164.921765 88.0056426 162.127373 88.0056426 161.300666 86.7624865 161.300666 84.6260539L161.300666 72.1790114 158.509371 72.1790114M171.855882 72.8679335L171.925548 72.8679335C172.787862 71.2145204 174.614667 70.178815 176.718589 70.178815L176.718589 72.2811886C173.78796 72.041227 171.855882 73.8014617 171.855882 76.7305418L171.855882 87.9344282 169.787568 87.9344282 169.787568 70.5240501 171.855882 70.5240501 171.855882 72.8679335M188.722863 78.0046607C188.722863 74.1420524 188.098963 71.8353244 184.789041 71.8353244 181.479118 71.8353244 180.858314 74.1420524 180.858314 78.0046607L188.722863 78.0046607zM180.858314 79.6627183L180.858314 81.0049553C180.858314 83.4169568 181.516273 86.6247021 184.789041 86.6247021 187.37753 86.6247021 188.651649 84.9697409 188.61759 82.6274056L190.788082 82.6274056C190.546572 86.8306047 188.273903 88.2812115 184.789041 88.2812115 181.791842 88.2812115 178.79 87.0736626 178.79 81.7976028L178.79 77.5231893C178.79 72.4901874 180.895469 70.178815 184.789041 70.178815 190.788082 70.178815 190.788082 74.4888357 190.788082 79.6627183L180.858314 79.6627183 180.858314 79.6627183zM196.694234 80.7634455C196.694234 84.7297792 198.485432 86.6247021 200.383451 86.6247021 203.244413 86.6247021 203.727432 84.7297792 203.897728 84.3133297 204.242963 83.452564 204.314177 80.3160332 204.314177 79.2137578 204.314177 75.7660509 204.314177 71.8353244 200.624961 71.8353244 199.039666 71.8353244 196.694234 73.3525012 196.694234 77.6609738L196.694234 80.7634455zM196.624568 72.6279719L196.694234 72.5923647C197.798058 70.9033443 199.522685 70.178815 200.900529 70.178815 206.346885 70.178815 206.382492 74.9377962 206.382492 77.2151095L206.382492 81.1071325C206.382492 85.6246039 204.829708 88.2812115 200.383451 88.2812115 199.106236 88.2812115 197.832117 87.6604075 196.762352 86.0038981L196.694234 85.9698391 196.694234 94.5202141 194.62592 94.5202141 194.62592 70.5240501 196.624568 70.5240501 196.624568 72.6279719 196.624568 72.6279719zM212.078097 72.8679335L212.149312 72.8679335C213.011626 71.2145204 214.83843 70.178815 216.940804 70.178815L216.940804 72.2811886C214.010176 72.041227 212.078097 73.8014617 212.078097 76.7305418L212.078097 87.9344282 210.009783 87.9344282 210.009783 70.5240501 212.078097 70.5240501 212.078097 72.8679335M228.945079 78.0046607C228.945079 74.1420524 228.322726 71.8353244 225.011256 71.8353244 221.702881 71.8353244 221.082077 74.1420524 221.082077 78.0046607L228.945079 78.0046607zM221.082077 79.6627183L221.082077 81.0049553C221.082077 83.4169568 221.738489 86.6247021 225.011256 86.6247021 227.599745 86.6247021 228.875412 84.9697409 228.841353 82.6274056L231.011845 82.6274056C230.770335 86.8306047 228.496118 88.2812115 225.011256 88.2812115 222.014058 88.2812115 219.012215 87.0736626 219.012215 81.7976028L219.012215 77.5231893C219.012215 72.4901874 221.117685 70.178815 225.011256 70.178815 231.011845 70.178815 231.011845 74.4888357 231.011845 79.6627183L221.082077 79.6627183 221.082077 79.6627183zM236.848331 87.9344282L234.778469 87.9344282 234.778469 70.5240501 236.848331 70.5240501 236.848331 72.6604828 236.917998 72.6604828C237.916548 71.2145204 239.261881 70.178815 241.122745 70.178815 245.432765 70.178815 245.881726 73.3850121 245.881726 75.6623255L245.881726 87.9344282 243.813411 87.9344282 243.813411 75.7660509C243.813411 73.7302473 243.017668 71.8353244 240.607214 71.8353244 238.743254 71.8353244 236.848331 73.1094433 236.848331 77.0061107L236.848331 87.9344282M259.579665 78.0046607C259.579665 74.1420524 258.955765 71.8353244 255.645842 71.8353244 252.33592 71.8353244 251.715116 74.1420524 251.715116 78.0046607L259.579665 78.0046607zM251.715116 79.6627183L251.715116 81.0049553C251.715116 83.4169568 252.371527 86.6247021 255.645842 86.6247021 258.234332 86.6247021 259.508451 84.9697409 259.474392 82.6274056L261.644883 82.6274056C261.403374 86.8306047 259.129157 88.2812115 255.645842 88.2812115 252.647096 88.2812115 249.646801 87.0736626 249.646801 81.7976028L249.646801 77.5231893C249.646801 72.4901874 251.752271 70.178815 255.645842 70.178815 261.644883 70.178815 261.644883 74.4888357 261.644883 79.6627183L251.715116 79.6627183 251.715116 79.6627183zM276.378528 70.5240501L276.378528 87.9344282 274.584234 87.9344282 274.584234 86.0038981 274.514568 86.0038981C273.308567 87.4854677 272.065411 88.2812115 270.136429 88.2812115 266.54939 88.2812115 265.55084 85.658663 265.55084 82.8302119L265.55084 70.5240501 267.619154 70.5240501 267.619154 82.4896212C267.619154 82.9679963 267.515429 86.6247021 270.515723 86.6247021 273.308567 86.6247021 274.308666 84.0052499 274.308666 82.797701L274.308666 70.5240501 276.378528 70.5240501M282.936448 72.8679335L283.006114 72.8679335C283.868428 71.2145204 285.695232 70.178815 287.797606 70.178815L287.797606 72.2811886C284.866978 72.041227 282.936448 73.8014617 282.936448 76.7305418L282.936448 87.9344282 280.866585 87.9344282 280.866585 70.5240501 282.936448 70.5240501 282.936448 72.8679335M294.939174 88.2812115C291.180291 88.2812115 289.698721 86.4528586 289.73278 82.7651901L291.83825 82.7651901C291.83825 85.1431325 292.38784 86.7284275 295.042899 86.7284275 297.041548 86.7284275 298.007587 85.592093 298.007587 83.6600148 298.007587 79.1084843 290.181741 80.2819741 290.181741 74.5244429 290.181741 71.3151495 292.38784 70.178815 295.422194 70.178815 298.8699 70.178815 299.973724 72.5598537 299.973724 75.213365L297.93792 75.213365C297.834195 73.0057179 297.250546 71.8353244 294.905115 71.8353244 293.420449 71.8353244 292.250056 72.8013635 292.250056 74.3510513 292.250056 78.6966792 300.077449 77.5231893 300.077449 83.3503868 300.077449 86.6247021 298.17943 88.2812115 294.939174 88.2812115M303.7388 87.9344282L303.7388 63.0434395 305.807114 63.0434395 305.807114 72.6604828 305.87678 72.6604828C306.878427 71.2145204 308.222212 70.178815 310.084624 70.178815 314.393096 70.178815 314.842057 73.3850121 314.842057 75.6623255L314.842057 87.9344282 312.772194 87.9344282 312.772194 75.7660509C312.772194 73.7302473 311.977999 71.8353244 309.567545 71.8353244 307.703585 71.8353244 305.807114 73.1094433 305.807114 77.0061107L305.807114 87.9344282 303.7388 87.9344282M319.746563 87.9344282L321.814878 87.9344282 321.814878 70.5240501 319.746563 70.5240501 319.746563 87.9344282zM319.505053 65.6628917L322.057936 65.6628917 322.057936 63.0434395 319.505053 63.0434395 319.505053 65.6628917zM328.854269 80.7634455C328.854269 84.7297792 330.645466 86.6247021 332.541937 86.6247021 335.402899 86.6247021 335.885919 84.7297792 336.057762 84.3133297 336.402997 83.452564 336.472664 80.3160332 336.472664 79.2137578 336.472664 75.7660509 336.472664 71.8353244 332.783447 71.8353244 331.196604 71.8353244 328.854269 73.3525012 328.854269 77.6609738L328.854269 80.7634455zM328.783054 72.6279719L328.854269 72.5923647C329.958092 70.9033443 331.681171 70.178815 333.059016 70.178815 338.505371 70.178815 338.540978 74.9377962 338.540978 77.2151095L338.540978 81.1071325C338.540978 85.6246039 336.989742 88.2812115 332.541937 88.2812115 331.264722 88.2812115 329.990603 87.6604075 328.920839 86.0038981L328.854269 85.9698391 328.854269 94.5202141 326.784406 94.5202141 326.784406 70.5240501 328.783054 70.5240501 328.783054 72.6279719 328.783054 72.6279719zM349.517288 75.4873857C349.517288 70.6618346 348.930543 62.56042 357.033506 62.56042 363.481507 62.56042 363.170331 68.3876175 363.170331 69.7670099L360.896114 69.7670099C361.033899 67.0066769 360.067859 64.4212838 357.033506 64.4212838 351.653721 64.4212838 351.724935 69.2127759 351.724935 75.4873857 351.724935 81.7650919 351.653721 86.556584 357.033506 86.556584 359.89292 86.556584 360.964232 84.0052499 360.996743 80.7990527L363.343723 80.7990527C363.343723 82.5902503 362.928821 88.4189959 357.033506 88.4189959 348.930543 88.4189959 349.517288 80.3160332 349.517288 75.4873857M376.420858 78.0046607C376.420858 74.1420524 375.796958 71.8353244 372.487035 71.8353244 369.178661 71.8353244 368.557857 74.1420524 368.557857 78.0046607L376.420858 78.0046607zM368.557857 79.6627183L368.557857 81.0049553C368.557857 83.4169568 369.214268 86.6247021 372.487035 86.6247021 375.075525 86.6247021 376.349644 84.9697409 376.317133 82.6274056L378.486076 82.6274056C378.246115 86.8306047 375.971898 88.2812115 372.487035 88.2812115 369.489837 88.2812115 366.487994 87.0736626 366.487994 81.7976028L366.487994 77.5231893C366.487994 72.4901874 368.595012 70.178815 372.487035 70.178815 378.486076 70.178815 378.486076 74.4888357 378.486076 79.6627183L368.557857 79.6627183 368.557857 79.6627183zM384.324111 87.9344282L382.254248 87.9344282 382.254248 70.5240501 384.324111 70.5240501 384.324111 72.6604828 384.393777 72.6604828C385.392327 71.2145204 386.737661 70.178815 388.598524 70.178815 392.908545 70.178815 393.357506 73.3850121 393.357506 75.6623255L393.357506 87.9344282 391.289191 87.9344282 391.289191 75.7660509C391.289191 73.7302473 390.493447 71.8353244 388.081446 71.8353244 386.217486 71.8353244 384.324111 73.1094433 384.324111 77.0061107L384.324111 87.9344282M396.020306 72.1790114L396.020306 70.5240501 398.811601 70.5240501 398.811601 66.9385588 400.881464 66.0406378 400.881464 70.5240501 404.398837 70.5240501 404.398837 72.1790114 400.881464 72.1790114 400.881464 83.3503868C400.881464 85.658663 401.121426 86.2113488 402.779483 86.2113488 403.466857 86.2113488 403.949877 86.1788379 404.398837 86.1076235L404.398837 87.9019173C403.778033 87.9684873 403.087563 88.0056426 402.4327 88.0056426 399.639856 88.0056426 398.811601 86.7624865 398.811601 84.6260539L398.811601 72.1790114 396.020306 72.1790114M416.644622 78.0046607C416.644622 74.1420524 416.020721 71.8353244 412.710799 71.8353244 409.400876 71.8353244 408.78162 74.1420524 408.78162 78.0046607L416.644622 78.0046607zM408.78162 79.6627183L408.78162 81.0049553C408.78162 83.4169568 409.436484 86.6247021 412.710799 86.6247021 415.299288 86.6247021 416.573407 84.9697409 416.539348 82.6274056L418.711388 82.6274056C418.46833 86.8306047 416.195661 88.2812115 412.710799 88.2812115 409.712052 88.2812115 406.711758 87.0736626 406.711758 81.7976028L406.711758 77.5231893C406.711758 72.4901874 408.817228 70.178815 412.710799 70.178815 418.711388 70.178815 418.711388 74.4888357 418.711388 79.6627183L408.78162 79.6627183 408.78162 79.6627183zM424.684111 72.8679335L424.753777 72.8679335C425.616091 71.2145204 427.442895 70.178815 429.546817 70.178815L429.546817 72.2811886C426.614641 72.041227 424.684111 73.8014617 424.684111 76.7305418L424.684111 87.9344282 422.614248 87.9344282 422.614248 70.5240501 424.684111 70.5240501 424.684111 72.8679335"/>
  </g>
</svg>
