<svg xmlns="http://www.w3.org/2000/svg" width="401" height="35" viewBox="0 0 401 35">
  <path fill="#000000" fill-rule="evenodd" d="M22.2447134,33.7845037 L13.1460014,33.7845037 L0.12103138,0.21580963 L9.55464433,0.21580963 L17.9348571,24.4947045 L26.3626281,0.21580963 L35.3656541,0.21580963 L22.2447134,33.7845037 Z M65.4833875,26.7928768 L65.4833875,33.7845037 L38.5235764,33.7845037 L38.5235764,0.21580963 L65.0049576,0.21580963 L65.0049576,7.20743649 L47.2868179,7.20743649 L47.2868179,13.4805641 L63.2809012,13.4805641 L63.2809012,20.4240632 L47.2868179,20.472191 L47.2868179,26.7928768 L65.4833875,26.7928768 Z M94.2606629,33.7845037 L79.032637,13.6725057 L79.032637,33.7845037 L70.844081,33.7845037 L70.844081,0.21580963 L78.5542071,0.21580963 L93.7816634,20.4240632 L93.7816634,0.21580963 L101.922661,0.21580963 L101.922661,33.7845037 L94.2606629,33.7845037 Z M124.282995,7.44665146 L124.282995,33.7845037 L115.519754,33.7845037 L115.519754,7.44665146 L105.559013,7.44665146 L105.559013,0.21580963 L134.338567,0.21580963 L134.338567,7.44665146 L124.282995,7.44665146 Z M152.869183,34.168102 C143.387727,34.168102 137.305402,28.565061 137.305402,19.705564 L137.305402,0.21580963 L146.068644,0.21580963 L146.068644,19.705564 C146.068644,24.0154202 148.942356,26.6971909 152.916741,26.6971909 C156.795156,26.6971909 159.477212,24.063548 159.477212,19.705564 L159.477212,0.21580963 L168.240453,0.21580963 L168.240453,19.705564 C168.240453,28.565061 162.302796,34.168102 152.869183,34.168102 Z M197.256944,22.8184911 L204.248286,33.7845037 L194.335673,33.7845037 L189.451131,24.4947045 L189.260329,24.4947045 L182.938789,24.4947045 L182.938789,33.7845037 L174.175547,33.7845037 L174.175547,0.21580963 L189.260329,0.21580963 C198.1671,0.21580963 203.242728,4.52566589 203.242728,11.9962922 C203.242728,17.0719212 201.135359,20.8070919 197.256944,22.8184911 Z M189.307603,7.20743649 L182.938789,7.20743649 L182.938789,17.5030777 L189.307603,17.5030777 C192.851401,17.5030777 194.910359,15.6833353 194.910359,12.2839198 C194.910359,8.97905112 192.851401,7.20743649 189.307603,7.20743649 Z M235.803018,26.7928768 L235.803018,33.7845037 L208.843206,33.7845037 L208.843206,0.21580963 L235.324588,0.21580963 L235.324588,7.20743649 L217.606448,7.20743649 L217.606448,13.4805641 L233.600246,13.4805641 L233.600246,20.4240632 L217.606448,20.472191 L217.606448,26.7928768 L235.803018,26.7928768 Z M269.655067,33.7845037 L255.528,33.7845037 L255.528,0.21580963 L269.989684,0.21580963 C280.620795,0.21580963 287.851068,7.01549496 287.851068,16.97652 C287.851068,26.9845336 280.525394,33.7845037 269.655067,33.7845037 Z M269.798596,7.35125025 L264.291241,7.35125025 L264.291241,26.6971909 L270.228899,26.6971909 C275.305382,26.6971909 278.896739,22.8184911 278.896739,17.0719212 C278.896739,11.2780778 275.11344,7.35125025 269.798596,7.35125025 Z M315.958826,33.7845037 L313.660653,27.8468466 L299.151127,27.8468466 L296.804542,33.7845037 L287.799807,33.7845037 L302.215357,0.21580963 L311.217243,0.21580963 L325.296753,33.7845037 L315.958826,33.7845037 Z M306.478509,9.17099265 L301.782491,21.1425625 L311.074854,21.1425625 L306.478509,9.17099265 Z M328.309722,33.7845037 L337.072964,33.7845037 L337.072964,0.21580963 L328.309722,0.21580963 L328.309722,33.7845037 Z M343.585306,33.7845037 L343.585306,0.21580963 L352.347978,0.21580963 L352.347978,26.3144469 L366.569877,26.3144469 L366.569877,33.7845037 L343.585306,33.7845037 Z M388.164723,23.0577061 L388.164723,33.7845037 L379.402051,33.7845037 L379.402051,23.2977754 L367.045459,0.21580963 L375.810979,0.21580963 L383.759181,14.6302199 L391.516581,0.21580963 L400.279253,0.21580963 L388.164723,23.0577061 Z" transform="translate(0 .197)"/>
</svg>
