<svg xmlns="http://www.w3.org/2000/svg" width="430" height="176" viewBox="0 0 430 176">
  <g fill-rule="evenodd">
    <path d="M423.326,27.817 C420.276,27.817 417.918,25.495 417.918,22.286 C417.918,19.147 420.276,16.789 423.326,16.789 C426.34,16.789 428.698,19.147 428.698,22.286 C428.698,25.495 426.34,27.817 423.326,27.817 Z M423.326,15.725 C419.709,15.725 416.641,18.508 416.641,22.286 C416.641,26.098 419.709,28.881 423.326,28.881 C426.908,28.881 429.975,26.098 429.975,22.286 C429.975,18.508 426.908,15.725 423.326,15.725 L423.326,15.725 Z"/>
    <path d="M421.924 21.842L421.924 19.466 423.503 19.466C424.833 19.466 425.188 19.874 425.188 20.601 425.188 21.434 424.726 21.842 423.308 21.842L421.924 21.842zM426.358 20.672C426.358 19.183 425.471 18.508 423.663 18.508L420.754 18.508 420.754 26.098 421.924 26.098 421.924 22.799 423.237 22.799 425.258 26.098 426.535 26.098 424.372 22.764C425.507 22.623 426.358 22.038 426.358 20.672L426.358 20.672zM61.405 129.533C60.041 128.5 58.667 127.482 57.273 126.5 55.315 125.119 53.464 123.942 51.718 122.97 49.973 121.998 48.354 121.157 46.861 120.448 46.529 120.29 46.212 120.145 45.901 120.006 47.002 119.574 48.178 119.12 49.467 118.632 52.452 117.505 55.424 116.317 58.384 115.068 61.344 113.819 64.626 112.39 68.23 110.783 68.728 110.561 69.235 110.327 69.739 110.098 67.545 115.314 65.452 120.22 63.472 124.78 62.791 126.349 62.1 127.937 61.405 129.533zM113.816 132.807C113.105 133.102 112.689 133.277 112.57 133.331 112.45 133.384 112.267 133.261 112.019 132.962 111.771 132.664 111.469 132.282 111.114 131.817 110.758 131.352 110.646 130.424 110.777 129.034 110.908 127.643 111.325 126.144 112.027 124.537 112.73 122.93 113.57 121.496 114.548 120.234 115.526 118.973 115.518 117.873 114.523 116.932 113.528 115.993 112.693 115.849 112.02 116.503 111.955 116.565 111.89 116.637 111.826 116.704 111.807 116.699 111.793 116.692 111.773 116.687 110.488 116.354 109.738 116.967 109.522 118.526 109.455 119.019 109.359 119.524 109.251 120.037 108.726 120.794 108.171 121.59 107.555 122.466 106.66 123.739 105.746 125.035 104.813 126.354 103.88 127.673 102.696 129.106 101.26 130.652 99.824 132.198 98.204 133.672 96.399 135.076 94.594 136.479 92.884 137.673 91.268 138.657 89.652 139.64 87.945 140.284 86.146 140.585 84.346 140.886 82.556 140.879 80.776 140.564 78.996 140.249 77.033 139.616 74.888 138.665 72.743 137.713 70.711 136.534 68.791 135.125 66.871 133.716 64.961 132.271 63.061 130.791 62.896 130.663 62.729 130.541 62.565 130.414 63.311 128.67 64.064 126.921 64.786 125.206 66.864 120.269 69.108 114.957 71.509 109.286 74.107 108.079 76.781 106.785 79.543 105.391 83.481 103.404 87.848 101.107 92.645 98.502 97.441 95.895 102.512 93.03 107.857 89.904 113.202 86.777 118.334 83.678 123.252 80.605 128.17 77.531 132.751 74.614 136.995 71.854 141.239 69.093 144.989 66.537 148.244 64.185 151.5 61.834 154.458 59.532 157.119 57.281 159.779 55.031 162.22 52.85 164.439 50.738 166.659 48.627 168.412 46.656 169.697 44.825 170.983 42.994 171.892 41.204 172.424 39.453 172.956 37.703 172.928 36.01 172.342 34.376 171.755 32.741 170.429 31.313 168.364 30.092 166.299 28.871 163.71 27.916 160.597 27.226 157.484 26.537 153.843 25.919 149.675 25.371 145.507 24.823 141.174 24.541 136.677 24.524 132.18 24.507 127.502 24.786 122.646 25.362 117.79 25.939 112.909 26.826 108.003 28.023 103.097 29.221 98.295 30.626 93.596 32.237 88.897 33.849 84.284 35.628 79.757 37.574 75.229 39.521 70.728 41.628 66.252 43.894 61.777 46.16 57.366 48.587 53.019 51.174 48.672 53.761 44.496 56.419 40.491 59.148 36.485 61.878 32.732 64.602 29.232 67.321 25.732 70.041 22.617 72.616 19.885 75.048 17.153 77.48 14.743 79.754 12.654 81.871 10.565 83.988 8.823 85.909 7.429 87.634 6.034 89.36 4.807 91.136 3.747 92.964 2.686 94.792 1.896 96.471 1.375 98.004.854 99.535.463 100.796.203 101.787-.058 102.777-.067 103.512.174 103.991 1.406 106.221 2.49 106.176 3.425 103.855 3.395 103.362 3.383 102.753 3.391 102.028 3.398 101.303 3.506 100.237 3.715 98.83 3.925 97.421 4.444 95.857 5.273 94.134 6.102 92.412 7.153 90.712 8.425 89.033 9.697 87.356 11.333 85.421 13.334 83.231 15.334 81.041 17.671 78.71 20.345 76.238 23.019 73.766 26.084 71.149 29.542 68.389 32.999 65.628 36.716 62.878 40.694 60.137 44.672 57.396 48.823 54.732 53.145 52.147 57.468 49.56 61.855 47.141 66.308 44.889 70.761 42.637 75.239 40.546 79.742 38.615 84.246 36.685 88.832 34.918 93.501 33.314 98.17 31.71 102.938 30.311 107.802 29.119 112.667 27.926 117.502 27.05 122.307 26.491 127.112 25.932 131.728 25.676 136.155 25.724 140.583 25.772 144.852 26.08 148.964 26.647 153.076 27.215 156.594 27.892 159.517 28.676 162.44 29.46 164.702 30.428 166.303 31.581 167.904 32.734 168.73 33.824 168.781 34.853 168.832 35.882 168.706 37.144 168.402 38.64 168.098 40.136 167.448 41.727 166.453 43.412 165.457 45.097 163.985 47.035 162.037 49.223 160.089 51.412 157.838 53.644 155.285 55.919 152.731 58.193 149.873 60.523 146.71 62.908 143.546 65.292 139.892 67.901 135.747 70.733 131.602 73.565 127.096 76.536 122.23 79.645 117.363 82.755 112.272 85.878 106.957 89.017 101.641 92.155 96.573 95.005 91.752 97.57 86.932 100.133 82.527 102.369 78.54 104.276 76.451 105.275 74.415 106.223 72.425 107.126 74.699 101.77 76.936 96.549 79.135 91.48 81.546 85.921 84.093 80.289 86.775 74.584 89.458 68.878 91.791 64.119 93.775 60.306 95.759 56.493 97.479 53.43 98.934 51.117 100.389 48.805 101.433 47.164 102.066 46.194 102.698 45.225 103.006 44.423 102.988 43.792 102.043 40.992 100.295 40.445 97.746 42.15 97.391 42.674 97.087 43.439 96.837 44.448 96.586 45.456 96.068 47.235 95.283 49.786 94.497 52.337 93.258 55.576 91.565 59.505 89.873 63.433 87.774 68.285 85.269 74.062 82.764 79.839 80.297 85.506 77.869 91.065 75.489 96.512 73.084 102.132 70.656 107.92 69.461 108.454 68.277 108.975 67.119 109.472 63.493 111.03 60.171 112.385 57.153 113.541 54.135 114.696 51.135 115.833 48.155 116.953 46.18 117.694 44.415 118.318 42.823 118.845 41.886 118.578 41.112 118.456 40.517 118.492 39.872 118.531 39.199 118.579 38.497 118.634 37.795 118.69 37.072 118.89 36.327 119.234 35.582 119.579 35.049 120.013 34.727 120.537 34.626 120.701 34.574 120.899 34.546 121.113 34.041 121.378 33.874 121.772 34.062 122.303 34.342 123.09 34.701 123.462 35.139 123.421 35.153 123.419 35.168 123.416 35.181 123.414 35.639 123.975 36.337 124.051 37.282 123.628 37.998 123.306 38.871 122.925 39.866 122.498 40.153 122.527 40.453 122.557 40.777 122.589 41.671 122.678 42.903 122.936 44.474 123.363 46.044 123.789 47.695 124.419 49.428 125.251 51.161 126.083 53.028 127.127 55.029 128.381 56.843 129.519 58.598 130.751 60.307 132.053 59.1 134.823 57.874 137.628 56.628 140.474 54.276 145.843 52.157 150.634 50.269 154.848 48.381 159.062 46.816 162.696 45.575 165.749 44.333 168.801 43.36 171.308 42.655 173.267 42.786 176.696 43.733 176.898 45.499 173.876 45.849 171.895 46.539 169.37 47.568 166.298 48.598 163.226 49.999 159.571 51.77 155.331 53.543 151.09 55.616 146.289 57.992 140.925 59.185 138.232 60.35 135.571 61.486 132.939 63.166 134.233 64.892 135.529 66.685 136.827 68.704 138.29 70.847 139.528 73.115 140.542 75.382 141.555 77.488 142.303 79.432 142.786 81.376 143.269 83.414 143.318 85.547 142.934 87.68 142.55 89.648 141.814 91.453 140.724 93.258 139.634 95.085 138.331 96.932 136.811 98.78 135.293 100.466 133.735 101.99 132.14 103.515 130.545 104.793 129.11 105.824 127.834 106.456 127.053 107.055 126.277 107.639 125.503 107.337 126.557 107.088 127.596 106.909 128.613 106.617 130.268 106.503 131.631 106.567 132.705 106.631 133.779 107.004 134.719 107.688 135.529 108.371 136.338 109.322 136.789 110.543 136.88 111.764 136.971 112.844 136.762 113.783 136.253 116.334 133.746 116.345 132.596 113.816 132.807L113.816 132.807z"/>
    <path d="M119.792 107.069C119.124 105.907 118.596 106.161 118.209 107.832 117.97 108.279 117.973 108.758 118.219 109.27 119.575 110.876 120.338 110.513 120.508 108.182 120.376 107.594 120.137 107.223 119.792 107.069M148.105 112.659C148 112.975 147.92 113.254 147.855 113.513 146.508 115.544 145.172 117.498 143.85 119.365 141.931 122.074 140.16 124.375 138.535 126.266 136.91 128.158 135.562 129.609 134.49 130.621 133.418 131.632 132.41 132.383 131.466 132.874 130.522 133.364 129.654 133.685 128.865 133.836 128.075 133.989 127.391 134.018 126.811 133.926 126.231 133.834 125.92 133.842 125.876 133.953 125.833 134.063 125.703 133.87 125.486 133.373 125.269 132.876 125.201 131.992 125.283 130.722 125.364 129.452 125.819 127.856 126.647 125.935 127.475 124.014 128.537 122.137 129.834 120.305 131.13 118.473 132.663 116.816 134.435 115.334 136.206 113.852 137.871 112.704 139.432 111.889 140.992 111.075 142.48 110.575 143.897 110.391 145.313 110.207 146.342 110.179 146.985 110.308 147.628 110.438 148.051 110.605 148.254 110.812 148.457 111.018 148.547 111.183 148.524 111.307 148.501 111.431 148.362 111.881 148.105 112.659zM152.165 128.054C150.743 128.378 149.848 128.47 149.48 128.329 149.112 128.188 148.875 127.465 148.768 126.163 148.661 124.861 148.713 123.377 148.924 121.712 149.135 120.048 149.827 117.669 151.001 114.573 152.174 111.478 153.717 107.999 155.631 104.135 157.145 101.08 158.838 97.855 160.696 94.475 160.89 94.145 161.085 93.819 161.28 93.488 163.041 90.481 164.865 87.398 166.752 84.241 167.977 82.192 169.15 80.255 170.284 78.408 171.897 75.97 173.459 73.741 174.965 71.739 176.867 69.209 178.545 67.286 179.999 65.966 181.452 64.647 181.728 63.501 180.827 62.529 180.202 61.854 179.644 61.686 179.149 62 178.966 61.905 178.759 61.819 178.505 61.747 177.157 61.369 176.168 62.049 175.538 63.789 174.907 65.528 173.814 67.749 172.258 70.452 170.702 73.154 168.938 76.156 166.966 79.457 164.994 82.758 162.84 86.633 160.506 91.082 158.171 95.531 156.004 99.684 154.007 103.542 153.744 104.048 153.503 104.531 153.251 105.024 152.39 106.435 151.501 107.857 150.59 109.288 150.319 108.665 149.9 108.119 149.301 107.669 148.396 106.988 147.327 106.591 146.094 106.478 144.861 106.366 143.46 106.561 141.893 107.066 140.325 107.571 138.699 108.341 137.017 109.378 135.334 110.416 133.62 111.779 131.875 113.468 130.13 115.158 128.555 116.984 127.15 118.948 125.745 120.911 124.573 122.91 123.635 124.945 122.696 126.98 121.992 128.721 121.521 130.17 121.049 131.617 120.794 132.89 120.754 133.99 120.715 135.088 121.12 136.008 121.97 136.75 122.82 137.491 123.782 137.847 124.856 137.82 125.931 137.793 127.042 137.623 128.189 137.311 129.337 137 130.52 136.471 131.737 135.727 132.955 134.982 134.153 133.989 135.333 132.747 136.512 131.504 137.885 129.834 139.453 127.736 141.02 125.637 142.744 123.184 144.624 120.375 145.57 118.962 146.525 117.515 147.492 116.033 147.491 116.035 147.491 116.036 147.491 116.038 147.528 116.446 147.588 116.771 147.661 117.06 146.953 118.71 146.37 120.087 145.914 121.189 145.197 122.921 144.852 124.643 144.878 126.355 144.904 128.067 145.551 129.438 146.82 130.466 148.089 131.495 149.636 131.68 151.46 131.023 154.67 129.006 154.905 128.016 152.165 128.054L152.165 128.054zM231.358 53.799C230.751 55.323 229.846 57.212 228.643 59.464 227.441 61.717 225.815 64.515 223.767 67.86 221.718 71.204 219.383 74.773 216.761 78.564 214.139 82.356 211.531 86.037 208.936 89.605 207.335 91.805 205.869 93.809 204.535 95.618 205.441 93.096 206.505 90.4 207.743 87.51 209.288 83.904 210.895 80.404 212.564 77.01 214.232 73.615 216.096 70.314 218.156 67.105 220.216 63.897 222.294 61.12 224.393 58.776 226.492 56.431 228.492 54.621 230.394 53.345 231.056 52.9 231.58 52.516 231.981 52.184 231.82 52.623 231.614 53.157 231.358 53.799zM216.631 104.231C217.892 101.995 219.118 100.292 220.31 99.122 221.204 98.245 222.067 97.533 222.901 96.985 222.711 97.472 222.492 98.001 222.237 98.579 221.692 99.813 220.864 101.228 219.753 102.824 218.642 104.419 217.498 105.951 216.319 107.419 215.583 108.336 214.816 109.246 214.034 110.155 214.586 108.308 215.444 106.337 216.631 104.231zM176.043 108.939C175.459 109.466 175.071 109.961 174.88 110.422 174.689 110.883 174.443 111.373 174.143 111.889 173.91 112.628 173.823 113.182 173.854 113.587 173.835 113.615 173.814 113.645 173.795 113.673 172.346 115.768 170.896 117.699 169.442 119.465 167.99 121.232 166.747 122.641 165.714 123.692 164.681 124.743 163.639 125.56 162.588 126.143 161.537 126.726 160.861 127 160.56 126.964 160.258 126.928 160.028 127.033 159.87 127.277 159.712 127.521 159.595 127.252 159.521 126.467 159.446 125.683 159.955 124.167 161.047 121.919 162.14 119.67 163.613 117.294 165.468 114.791 167.322 112.287 169.318 110.206 171.454 108.549 173.59 106.893 175.214 105.957 176.326 105.738 177.437 105.519 178.064 105.414 178.208 105.42 178.257 105.422 178.28 105.419 178.308 105.417 178.257 105.491 178.182 105.67 178.08 105.969 177.932 106.403 177.701 106.874 177.388 107.383 177.075 107.893 176.626 108.412 176.043 108.939zM231.896 48.283C230.212 48.046 228.642 48.881 227.185 50.79 225.729 52.699 224.02 54.913 222.06 57.431 220.1 59.95 218.127 62.867 216.142 66.182 214.157 69.497 212.32 72.868 210.629 76.293 208.938 79.72 207.325 83.25 205.791 86.884 204.255 90.519 202.909 93.846 201.75 96.867 201.102 98.559 200.489 100.206 199.906 101.817 198.854 103.209 197.835 104.543 196.861 105.801 195.196 107.955 193.635 109.905 192.179 111.653 190.723 113.401 189.282 115.042 187.855 116.576 186.429 118.11 185.196 119.344 184.157 120.281 183.117 121.217 182.119 122.023 181.164 122.699 180.208 123.374 179.323 123.852 178.509 124.132 177.694 124.414 177.27 124.652 177.235 124.849 177.2 125.046 177.11 124.612 176.963 123.548 176.817 122.484 176.922 121.003 177.279 119.108 177.635 117.212 178.36 114.877 179.455 112.1 180.548 109.324 181.854 106.365 183.371 103.222 184.887 100.081 186.523 96.877 188.278 93.611 190.033 90.344 191.667 87.338 193.181 84.59 194.695 81.842 196.413 79.06 198.334 76.242 200.256 73.424 201.963 71.15 203.456 69.418 204.949 67.686 205.568 66.183 205.315 64.908 205.158 64.115 204.871 63.852 204.454 64.114 204.232 64.009 203.884 64.011 203.39 64.137 201.968 64.5 200.773 65.684 199.807 67.689 198.841 69.695 197.526 72.176 195.864 75.132 194.201 78.088 192.584 80.942 191.011 83.695 189.438 86.448 187.821 89.481 186.158 92.793 184.893 95.314 183.668 97.772 182.462 100.198 181.72 101.416 180.972 102.627 180.219 103.83 179.875 102.741 179.119 102.024 177.95 101.68 176.78 101.336 175.445 101.533 173.944 102.273 172.443 103.013 170.74 104.433 168.835 106.536 166.93 108.637 165.062 111.003 163.23 113.63 161.397 116.259 159.842 118.717 158.564 121.004 157.287 123.292 156.394 125.17 155.886 126.64 155.378 128.11 155.538 129.208 156.365 129.933 157.192 130.658 158.171 130.947 159.302 130.798 160.433 130.651 161.65 130.061 162.952 129.032 164.254 128.002 165.476 126.881 166.615 125.671 167.754 124.461 169.023 122.888 170.421 120.951 171.82 119.014 173.244 116.967 174.694 114.81 174.817 114.628 174.946 114.428 175.07 114.241 175.259 114.182 175.467 114.099 175.699 113.985 175.897 113.786 176.096 113.615 176.296 113.465 175.496 115.383 174.838 117.075 174.325 118.537 173.634 120.502 173.221 122.256 173.085 123.8 172.949 125.345 173.471 126.505 174.65 127.283 175.829 128.059 177.04 128.125 178.282 127.477 179.524 126.831 180.68 126.103 181.75 125.294 182.82 124.487 183.912 123.539 185.024 122.449 186.136 121.36 187.384 119.965 188.768 118.266 190.152 116.568 191.574 114.823 193.034 113.031 194.494 111.239 196.043 109.232 197.683 107.009 197.932 106.67 198.189 106.32 198.445 105.973 197.556 108.573 196.756 110.99 196.052 113.213 195.309 115.559 194.666 117.71 194.124 119.664 193.582 121.618 193.334 123.246 193.38 124.547 193.427 125.85 194.059 126.733 195.277 127.195 196.495 127.658 197.78 127.464 199.13 126.615 200.481 125.765 201.768 124.827 202.991 123.798 204.213 122.77 205.427 121.728 206.631 120.67 207.767 119.672 208.844 118.665 209.873 117.646 210.15 119.086 210.885 120.2 212.082 120.984 213.662 122.02 216.005 122.246 219.112 121.662 222.219 121.077 225.616 120.016 229.303 118.48 233.682 116.203 233.72 115.704 229.418 116.983 225.818 118.37 222.653 119.149 219.925 119.321 217.197 119.494 215.376 119.436 214.464 119.149 213.551 118.862 213.097 117.835 213.102 116.065 213.103 115.353 213.161 114.623 213.25 113.883 213.358 113.751 213.463 113.626 213.573 113.489 214.83 111.919 216.065 110.392 217.276 108.907 218.488 107.421 219.669 105.836 220.82 104.152 221.97 102.466 222.895 100.992 223.595 99.726 224.295 98.461 224.849 97.201 225.256 95.946 225.664 94.692 225.15 93.642 223.715 92.796 222.281 91.948 221.084 92.092 220.124 93.227 219.164 94.361 218.098 95.663 216.927 97.132 215.756 98.601 214.648 100.568 213.603 103.031 212.558 105.495 211.66 107.753 210.908 109.808 210.31 111.442 209.953 113.117 209.815 114.83 209.593 115.065 209.373 115.295 209.164 115.512 208.166 116.544 207.073 117.572 205.882 118.598 204.692 119.624 203.519 120.586 202.361 121.485 201.204 122.384 200.141 123.019 199.172 123.39 198.204 123.762 197.751 124.01 197.813 124.134 197.875 124.259 197.73 124.086 197.376 123.616 197.024 123.144 197.019 121.988 197.36 120.146 197.702 118.304 198.179 116.206 198.793 113.849 199.407 111.492 200.152 108.931 201.028 106.165 201.717 103.991 202.455 101.731 203.236 99.393 205.044 96.885 207.149 93.904 209.559 90.437 212.097 86.786 214.678 83.053 217.301 79.241 219.924 75.428 222.281 71.857 224.369 68.528 226.458 65.198 228.161 62.439 229.478 60.248 230.795 58.057 231.836 56.202 232.6 54.685 233.365 53.167 233.859 51.78 234.084 50.523 234.308 49.267 233.58 48.521 231.896 48.283L231.896 48.283zM267.371 101.06C264.411 103.275 262.006 104.786 260.158 105.592 258.309 106.399 256.685 106.831 255.287 106.887 253.888 106.944 252.732 106.756 251.819 106.326 250.906 105.894 250.036 105.292 249.207 104.517 248.377 103.743 247.742 102.894 247.299 101.97 246.856 101.046 246.563 100.057 246.419 99.001 246.276 97.945 246.33 96.832 246.578 95.66 246.827 94.489 247.26 93.314 247.877 92.135 248.495 90.957 249.29 89.831 250.262 88.758 251.235 87.686 252.403 86.646 253.766 85.638 255.128 84.63 256.614 83.614 258.222 82.589 259.83 81.565 261.501 80.472 263.235 79.309 264.969 78.147 266.695 76.972 268.411 75.784 268.533 75.699 268.649 75.617 268.771 75.532 268.785 77.026 268.815 78.594 268.864 80.245 268.957 83.387 269.1 86.626 269.293 89.963 269.467 92.961 269.586 96.069 269.667 99.257 268.897 99.888 268.132 100.491 267.371 101.06zM270.154 64.134C270.216 61.682 270.272 59.482 270.321 57.536 270.37 55.588 270.406 53.989 270.427 52.738 270.45 51.488 270.462 50.569 270.466 49.984 270.47 49.399 270.456 49.092 270.424 49.064 270.391 49.036 270.558 48.991 270.924 48.928 271.29 48.865 271.822 48.665 272.521 48.328 273.219 47.99 273.91 47.77 274.593 47.668 275.277 47.565 276.041 47.493 276.886 47.45 277.731 47.408 278.513 47.532 279.233 47.821 279.953 48.111 280.563 48.539 281.065 49.107 281.567 49.674 281.976 50.411 282.293 51.317 282.609 52.223 282.73 53.215 282.656 54.294 282.582 55.372 282.346 56.46 281.948 57.557 281.549 58.654 281.001 59.697 280.301 60.686 279.603 61.675 278.791 62.662 277.866 63.646 276.941 64.63 275.874 65.646 274.663 66.692 273.453 67.738 272.113 68.862 270.642 70.064 270.419 70.246 270.18 70.428 269.954 70.61 270.032 68.416 270.1 66.252 270.154 64.134zM293.441 73.146C291.417 75.958 288.842 79.194 285.718 82.854 282.594 86.514 279.496 89.91 276.421 93.042 274.516 94.982 272.635 96.725 270.774 98.314 270.579 95.411 270.403 92.567 270.259 89.823 270.085 86.488 269.96 83.263 269.886 80.147 269.841 78.249 269.832 76.468 269.849 74.778 271.047 73.939 272.223 73.107 273.351 72.291 274.93 71.15 276.39 70.067 277.731 69.044 279.071 68.021 280.277 66.981 281.346 65.926 282.417 64.871 283.368 63.759 284.201 62.589 285.033 61.42 285.712 60.159 286.238 58.808 286.764 57.456 287.099 56.064 287.244 54.633 287.388 53.202 287.283 51.803 286.927 50.438 286.572 49.072 285.961 47.903 285.095 46.929 284.23 45.955 283.204 45.213 282.017 44.705 280.83 44.196 279.671 43.914 278.543 43.859 277.413 43.802 276.388 43.851 275.469 44.005 274.549 44.157 273.663 44.354 272.81 44.592 271.957 44.831 271.257 45.156 270.712 45.567 270.168 45.979 269.607 46.581 269.029 47.375 268.451 48.169 268.216 49.028 268.326 49.954 268.436 50.879 268.556 51.907 268.687 53.036 268.819 54.166 268.898 55.692 268.926 57.616 268.955 59.539 268.946 61.72 268.899 64.159 268.852 66.555 268.812 69.018 268.778 71.543 267.866 72.253 266.932 72.964 265.956 73.676 264.302 74.882 262.622 76.059 260.916 77.205 259.209 78.351 257.531 79.416 255.882 80.4 254.233 81.385 252.657 82.395 251.155 83.429 249.653 84.464 248.302 85.576 247.103 86.764 245.904 87.953 244.908 89.24 244.117 90.626 243.326 92.011 242.742 93.435 242.367 94.896 241.992 96.358 241.862 97.796 241.978 99.213 242.093 100.629 242.465 101.99 243.093 103.293 243.721 104.596 244.572 105.734 245.646 106.706 246.72 107.677 247.94 108.482 249.305 109.118 250.669 109.754 252.285 109.966 254.15 109.753 256.014 109.541 258.001 108.903 260.108 107.841 262.215 106.779 264.759 105.005 267.741 102.521 268.394 101.977 269.05 101.409 269.709 100.83 269.774 104.169 269.771 106.939 269.698 109.123 269.622 111.418 269.494 113.282 269.314 114.718 269.135 116.154 269.19 117.106 269.479 117.575 269.767 118.044 269.972 118.51 270.091 118.975 270.794 120.448 271.319 120.328 271.664 118.615 271.63 118.118 271.755 117.669 272.042 117.268 272.327 116.867 272.346 115.959 272.098 114.544 271.851 113.128 271.652 111.273 271.501 108.977 271.349 106.681 271.148 103.749 270.897 100.179 270.887 100.046 270.88 99.918 270.871 99.784 272.84 97.999 274.831 96.076 276.845 93.982 279.934 90.774 283.042 87.32 286.169 83.621 289.296 79.922 291.908 76.694 294.003 73.938 296.367 70.191 296.179 69.927 293.441 73.146L293.441 73.146zM362.124 85.963C361.618 87.704 360.99 89.312 360.241 90.786 359.491 92.259 358.688 93.593 357.833 94.788 356.977 95.981 356.039 97.046 355.017 97.981 353.996 98.916 353.056 99.588 352.199 99.999 351.341 100.41 350.795 100.669 350.56 100.779 350.325 100.888 350.119 100.733 349.941 100.311 349.763 99.89 349.707 99.026 349.772 97.719 349.837 96.413 350.162 94.858 350.745 93.057 351.328 91.256 351.998 89.472 352.754 87.705 353.511 85.937 354.306 84.289 355.137 82.761 355.949 81.27 356.591 80.022 357.071 79.01 357.192 78.966 357.311 78.925 357.44 78.876 358.65 77.97 359.581 77.477 360.23 77.394 360.879 77.312 361.434 77.546 361.894 78.099 362.354 78.651 362.633 79.665 362.733 81.139 362.833 82.614 362.629 84.222 362.124 85.963zM381.423 85.484C381.792 83.487 382.415 81.692 383.293 80.101 384.17 78.51 384.924 77.306 385.555 76.489 386.186 75.672 386.933 74.938 387.798 74.287 388.663 73.636 389.387 73.236 389.969 73.087 389.999 73.079 390.017 73.07 390.044 73.062 390.005 73.219 389.966 73.394 389.927 73.592 389.759 74.436 389.472 75.467 389.068 76.686 388.663 77.904 388.044 79.221 387.211 80.637 386.379 82.052 385.416 83.482 384.32 84.926 383.291 86.284 382.208 87.549 381.08 88.736 381.114 87.656 381.223 86.572 381.423 85.484zM336.364 86.452C336.692 87.153 336.918 87.988 337.04 88.959 337.162 89.928 337.168 91.088 337.06 92.437 336.953 93.786 336.751 95.173 336.454 96.6 336.157 98.027 335.812 99.308 335.419 100.445 335.026 101.582 334.509 102.55 333.869 103.351 333.229 104.152 332.485 104.834 331.638 105.397 330.791 105.961 329.97 106.351 329.175 106.568 328.38 106.784 327.753 106.846 327.293 106.754 326.834 106.662 326.44 106.616 326.113 106.616 325.787 106.616 325.59 105.776 325.525 104.097 325.46 102.418 325.746 100.322 326.385 97.809 327.024 95.296 327.961 92.667 329.196 89.921 330.43 87.175 331.563 85.189 332.594 83.962 332.935 83.556 333.153 83.176 333.271 82.817 333.89 83.279 334.469 83.799 334.996 84.4 335.58 85.067 336.036 85.751 336.364 86.452zM412.308.421C410.812.048 409.311 1.475 407.807 4.7 406.302 7.926 404.101 11.81 401.204 16.352 398.305 20.895 395.146 26.031 391.724 31.76 388.302 37.49 385.192 42.838 382.395 47.805 379.598 52.772 377.069 57.305 374.809 61.403 372.548 65.502 370.588 69.092 368.929 72.176 367.27 75.259 365.871 78.038 364.731 80.512 364.565 80.872 364.412 81.233 364.253 81.595 364.253 81.333 364.261 81.069 364.25 80.809 364.165 78.948 363.643 77.363 362.684 76.053 361.726 74.744 360.417 74.145 358.757 74.256 357.624 74.333 356.584 74.682 355.632 75.289 354.96 74.846 354.27 74.683 353.561 74.813 352.565 74.995 351.519 75.272 350.424 75.644 349.33 76.016 348.142 76.423 346.862 76.865 345.583 77.308 344.258 77.736 342.889 78.15 341.521 78.564 339.988 78.725 338.289 78.632 336.591 78.54 335.193 78.332 334.096 78.007 333.119 77.719 332.325 77.938 331.711 78.658 331.416 78.574 331.12 78.51 330.823 78.484 329.871 78.402 329.461 78.947 329.593 80.119 329.598 80.164 329.611 80.202 329.618 80.245 328.455 80.03 327.751 80.693 327.514 82.246 327.284 83.76 326.814 85.894 326.111 88.631 325.395 89.941 324.551 91.342 323.563 92.845 322.35 94.691 321.067 96.489 319.715 98.239 318.364 99.99 316.879 101.65 315.261 103.221 313.644 104.792 312.052 106.105 310.488 107.16 308.922 108.214 307.46 108.924 306.101 109.291 304.742 109.656 303.643 109.774 302.805 109.646 301.967 109.517 301.244 109.254 300.634 108.857 300.024 108.46 299.512 107.622 299.098 106.343 298.684 105.065 298.969 102.584 299.952 98.9 300.935 95.216 302.361 90.95 304.23 86.098 306.099 81.247 308.519 75.897 311.492 70.047 314.464 64.197 317.496 58.706 320.586 53.573 323.677 48.44 326.943 43.452 330.383 38.609 333.825 33.766 337.001 29.626 339.913 26.188 342.825 22.751 345.446 19.987 347.776 17.898 350.106 15.809 352.102 14.369 353.763 13.58 355.424 12.79 356.855 12.548 358.056 12.855 359.257 13.162 360.245 13.897 361.019 15.062 361.793 16.226 362.158 17.921 362.111 20.144 362.063 22.368 361.664 24.574 360.912 26.763 360.16 28.952 359.075 31.278 357.656 33.742 356.238 36.205 354.749 38.397 353.19 40.316 351.631 42.236 350.352 43.731 349.35 44.801 348.349 45.872 347.557 46.752 346.975 47.442 345.947 50.32 346.639 51.15 349.053 49.933 349.653 49.303 350.365 48.339 351.19 47.039 352.015 45.739 353.13 44.005 354.536 41.836 355.941 39.667 357.338 37.288 358.731 34.701 360.123 32.114 361.232 29.652 362.059 27.316 362.886 24.979 363.324 22.556 363.373 20.046 363.42 17.537 362.932 15.402 361.906 13.645 360.88 11.886 359.422 10.75 357.534 10.234 355.645 9.719 353.71 10.014 351.729 11.121 349.748 12.227 347.675 13.951 345.51 16.291 343.345 18.632 340.885 21.59 338.129 25.168 335.373 28.745 332.327 32.994 328.991 37.914 325.656 42.835 322.438 47.873 319.338 53.029 316.239 58.185 313.215 63.705 310.267 69.589 307.319 75.474 304.856 80.842 302.877 85.693 300.899 90.545 299.329 94.829 298.167 98.546 297.004 102.262 296.358 105.035 296.226 106.863 296.095 108.691 296.455 110.102 297.304 111.096 298.155 112.09 299.334 112.665 300.842 112.819 302.35 112.974 303.969 112.736 305.7 112.106 307.43 111.476 309.156 110.527 310.875 109.259 312.594 107.992 314.289 106.508 315.959 104.809 317.628 103.11 319.167 101.359 320.575 99.555 321.982 97.752 323.308 95.904 324.554 94.012 324.625 93.906 324.688 93.805 324.757 93.7 324.418 94.928 324.08 96.127 323.742 97.285 322.99 99.867 322.502 102.129 322.28 104.072 322.057 106.014 322.209 107.537 322.735 108.638 323.26 109.74 324.075 110.352 325.176 110.474 326.278 110.597 327.45 110.42 328.691 109.945 329.932 109.469 331.096 108.846 332.183 108.077 333.269 107.307 334.248 106.361 335.119 105.238 335.989 104.116 336.654 102.856 337.114 101.459 337.573 100.061 337.941 98.599 338.217 97.073 338.494 95.546 338.701 94.046 338.838 92.57 338.976 91.095 339.005 89.727 338.926 88.467 338.847 87.207 338.577 86.024 338.114 84.917 337.651 83.811 337.027 82.82 336.244 81.945 336.106 81.791 335.953 81.657 335.809 81.509 336.251 81.486 336.704 81.464 337.171 81.442 339.108 81.349 340.848 81.123 342.392 80.763 343.936 80.403 345.329 80.041 346.569 79.675 347.809 79.309 348.978 78.972 350.076 78.666 350.56 78.531 350.971 78.412 351.332 78.304 351.296 79.054 351.119 80.108 350.78 81.504 350.39 83.11 349.865 84.824 349.203 86.648 348.541 88.471 347.906 90.328 347.299 92.216 346.692 94.105 346.22 95.801 345.882 97.304 345.545 98.808 345.527 100.239 345.827 101.598 346.126 102.957 346.986 103.723 348.404 103.898 349.823 104.072 351.142 103.783 352.362 103.031 353.581 102.278 354.759 101.317 355.897 100.148 357.035 98.979 358.076 97.726 359.021 96.39 359.458 95.773 359.875 95.12 360.277 94.439 360.253 94.585 360.222 94.739 360.202 94.882 359.91 96.896 359.827 98.607 359.952 100.014 360.077 101.421 360.553 102.582 361.381 103.493 362.209 104.405 363.183 104.767 364.304 104.582 365.426 104.395 366.396 104.055 367.214 103.561 368.034 103.068 368.86 102.488 369.693 101.821 370.526 101.154 371.367 100.453 372.215 99.716 373.063 98.98 373.994 98.184 375.006 97.331 376.019 96.477 377.094 95.518 378.231 94.453 378.299 94.389 378.369 94.319 378.437 94.255 378.81 95.41 379.333 96.455 380.047 97.356 381.258 98.884 383.066 99.828 385.469 100.186 387.872 100.544 390.66 100.413 393.832 99.792 398.023 98.418 398.218 97.765 394.418 97.834 391.414 98.256 388.973 98.262 387.096 97.853 385.219 97.444 383.809 96.764 382.865 95.813 381.926 94.868 381.362 93.417 381.166 91.466 381.373 91.241 381.58 91.017 381.79 90.782 383.025 89.4 384.211 87.948 385.351 86.425 386.49 84.903 387.521 83.384 388.444 81.871 389.368 80.357 390.093 78.945 390.62 77.637 391.146 76.329 391.564 75.168 391.873 74.157 392.182 73.146 392.157 72.087 391.797 70.98 391.438 69.874 390.708 69.177 389.608 68.891 388.509 68.605 387.51 68.718 386.613 69.23 385.715 69.743 384.84 70.468 383.986 71.406 383.132 72.344 382.307 73.33 381.512 74.365 380.717 75.4 380.013 76.875 379.401 78.789 378.789 80.704 378.326 82.766 378.011 84.978 377.697 87.189 377.655 89.423 377.885 91.679 377.891 91.733 377.905 91.782 377.911 91.836 377.746 91.983 377.58 92.134 377.418 92.276 376.325 93.23 375.264 94.1 374.238 94.886 373.21 95.672 372.269 96.414 371.413 97.11 370.555 97.805 369.741 98.422 368.967 98.96 368.194 99.497 367.509 99.93 366.913 100.262 366.316 100.593 365.856 100.801 365.531 100.884 365.207 100.967 364.947 100.986 364.751 100.939 364.556 100.892 364.27 100.366 363.894 99.358 363.518 98.351 363.351 96.933 363.394 95.104 363.436 93.275 363.831 91.131 364.579 88.674 365.327 86.217 366.175 83.748 367.126 81.267 368.078 78.787 369.297 75.985 370.787 72.861 372.275 69.738 374.104 66.111 376.274 61.98 378.444 57.85 380.894 53.293 383.626 48.309 386.357 43.324 389.471 37.992 392.969 32.311 396.467 26.63 399.765 21.58 402.863 17.16 405.961 12.741 408.825 9.281 411.453 6.78 412.712 5.583 413.575 4.578 414.06 3.756 414.072 3.748 414.082 3.741 414.093 3.732 414.483 3.091 414.657 2.472 414.615 1.876 414.573 1.278 413.803.794 412.308.421L412.308.421z"/>
  </g>
</svg>
