<svg xmlns="http://www.w3.org/2000/svg" width="391" height="242" viewBox="0 0 391 242" xmlns:xlink="http://www.w3.org/1999/xlink">
  <defs>
    <rect id="a" width="45.936" height="45.365" x=".122" y=".42"/>
    <rect id="c" width="50.068" height="47.948" x=".447" y=".29"/>
    <rect id="e" width="1.451" height="16.214" x=".091" y=".039"/>
    <rect id="g" width="1.451" height="1.39" x=".364" y=".01"/>
    <rect id="i" width="1.451" height="1.39" x=".161" y=".183"/>
    <rect id="k" width="60.501" height="32.869" x=".068" y=".218"/>
    <rect id="m" width="3.848" height="3.685" x=".147" y=".167"/>
    <rect id="o" width="11.184" height="10.71" x=".08" y=".142"/>
    <rect id="q" width="11.178" height="10.752" x=".12" y=".171"/>
    <rect id="s" width="15.904" height="19.053" x=".042" y=".138"/>
    <rect id="u" width="11.145" height="10.71" x=".074" y=".142"/>
    <rect id="w" width="11.143" height="9.221" x=".103" y=".242"/>
    <rect id="y" width="37.207" height="19.198" x=".189" y=".003"/>
    <rect id="A" width="163.898" height="156.161" x=".046" y=".086"/>
    <rect id="C" width="45.948" height="45.146" x=".122" y=".418"/>
    <rect id="E" width="50.081" height="47.717" x=".447" y=".289"/>
    <rect id="G" width="1.451" height="16.136" x=".091" y=".039"/>
    <rect id="I" width="1.451" height="1.383" x=".364" y=".01"/>
    <rect id="K" width="1.451" height="1.383" x=".161" y=".183"/>
    <rect id="M" width="60.516" height="32.71" x=".068" y=".217"/>
    <rect id="O" width="3.849" height="3.667" x=".147" y=".166"/>
    <rect id="Q" width="11.187" height="10.659" x=".08" y=".141"/>
    <rect id="S" width="11.181" height="10.7" x=".12" y=".17"/>
    <rect id="U" width="15.908" height="18.961" x=".042" y=".137"/>
    <rect id="W" width="11.148" height="10.659" x=".074" y=".141"/>
    <rect id="Y" width="11.146" height="9.176" x=".103" y=".241"/>
    <rect id="aa" width="37.216" height="19.105" x=".189" y=".003"/>
    <rect id="ac" width="56.287" height="53.796" x=".043" y=".096"/>
  </defs>
  <g fill="none" fill-rule="evenodd" transform="translate(0 13)">
    <path fill="#083749" fill-rule="nonzero" d="M158.30364,99.5278904 L86.9201521,99.5278904 L173.969388,0 C173.969388,0 241.173249,0.886863014 240.476736,0.886863014 L158.30364,99.5278904 Z M291.18251,99.6164384 L326.513777,59.4931507 C326.513777,59.4931507 380.679615,60.3800137 379.983102,60.3800137 L347.001033,99.6164384 L291.18251,99.6164384 Z M0,99.7031936 L31.4624136,63.7305909 C31.4624136,63.7305909 98.6662749,63.2338923 97.9697605,64.6174539 L68.7415179,99.7031936 L0,99.7031936 Z" opacity=".2" transform="translate(0 128)"/>
    <g transform="translate(2 71)">
      <path fill="#39BA91" fill-rule="nonzero" d="M59.2778726,38.9066901 C49.846575,38.9066901 42.2005291,46.2292929 42.2005291,55.2611137 C42.2005291,60.4616697 44.738336,65.0919307 48.6894674,68.0867077 L72.6707417,45.1211961 C69.5435059,41.3370045 64.7084487,38.9066901 59.2778726,38.9066901"/>
      <path stroke="#A9CAD3" stroke-width=".2" d="M45.1024542,71.7984762 C48.919143,74.6922575 53.7396635,76.4238556 58.9853938,76.4238556 C71.3519445,76.4238556 81.3765167,66.8236347 81.3765167,54.9814233 C81.3765167,49.9573261 79.5674914,45.3412882 76.5457983,41.6857394"/>
      <rect width="1.451" height="98.656" x="58.161" y="5.558" fill="#E5E5E5" fill-rule="nonzero"/>
      <g opacity=".16" transform="translate(32.044 29.18)">
        <mask id="b" fill="white">
          <use xlink:href="#a"/>
        </mask>
        <path fill="#FFFFFF" fill-rule="nonzero" d="M0.12098795,28.4221789 C0.12098795,34.9828729 2.41172291,41.0122742 6.23824587,45.785091 L46.0571214,6.46016731 C41.2243002,2.68159551 35.1190964,0.419302423 28.4759205,0.419302423 C12.8162402,0.419302423 0.12098795,12.956489 0.12098795,28.4221789" mask="url(#b)"/>
      </g>
      <g opacity=".13" transform="translate(29.142 27.79)">
        <mask id="d" fill="white">
          <use xlink:href="#c"/>
        </mask>
        <path stroke="#FFFFFF" stroke-width=".2" d="M50.4866255,6.70925213 C45.2266938,2.72131639 38.5825696,0.333977782 31.3524105,0.333977782 C14.3088658,0.333977782 0.492556829,13.5652651 0.492556829,29.8871381 C0.492556829,36.8111518 2.98590107,43.1730841 7.15061286,48.2111562" mask="url(#d)"/>
      </g>
      <path fill="#FFFFFF" fill-rule="nonzero" d="M78.4745917,56.4902943 C78.4745917,52.4715969 77.0272794,48.7784325 74.6103775,45.8543134 L49.4553417,69.9442139 C52.5087508,72.2587773 56.3652085,73.6448063 60.562049,73.6448063 C70.4546018,73.6448063 78.4745917,65.9644055 78.4745917,56.4902943"/>
      <g opacity=".67" transform="translate(59.612 56.97)">
        <mask id="f" fill="white">
          <use xlink:href="#e"/>
        </mask>
        <polygon fill="#E5F5F9" fill-rule="nonzero" points="1.389 16.2 .091 16.252 .091 1.21 1.368 .039" mask="url(#f)"/>
      </g>
      <path fill="#FFFFFF" fill-rule="nonzero" d="M94.1232083,97.7910569 C97.557642,102.028912 100.142546,106.902595 101.617008,112.081098 C103.129127,117.251015 103.487767,122.710296 102.818006,128.032623 C102.139278,133.358384 100.343384,138.551055 97.5684013,143.21351 C94.7987979,147.878973 91.0617608,152.01336 86.6415131,155.312283 C82.2248519,158.6155 77.1236351,161.078531 71.7175734,162.498734 C66.3128569,163.918936 60.6153997,164.314344 55.0528811,163.651468 C49.4881209,163.000184 44.0627825,161.280742 39.1888542,158.624946 C34.3086498,155.978594 29.9928563,152.389018 26.5485597,148.152452 C23.1029185,143.915884 20.5350504,139.027175 19.0547606,133.847813 C17.5677462,128.669739 17.1750345,123.212605 17.8604868,117.885555 C18.5436974,112.557648 20.3440742,107.363689 23.1230919,102.702521 C25.8967302,98.0379181 29.6378018,93.9048181 34.0598428,90.6088997 C38.4787455,87.3086879 43.5817556,84.8495214 48.9869205,83.4331824 C54.3916371,82.0022463 60.0850596,81.6514887 65.6471299,82.2838826 C71.2083036,82.9514812 76.6215379,84.676504 81.4972595,87.320709 C86.3568421,89.9932494 90.6654628,93.5686577 94.1232083,97.7910569 M94.1232083,97.7910569 C90.6623246,93.570375 86.3519107,89.9992599 81.4918797,87.3305835 C76.61571,84.689813 71.2024756,82.968654 65.6439918,82.3057782 C60.0846112,81.6772481 54.3952236,82.0314403 48.9958866,83.4653817 C43.5961012,84.883438 38.4998156,87.3434631 34.0880856,90.6432456 C29.672321,93.9391641 25.9397671,98.0692587 23.1728534,102.729568 C20.4010085,107.386872 18.6064597,112.573533 17.9286284,117.894142 C17.2481076,123.212605 17.6444056,128.660723 19.1318684,133.828064 C20.6126066,138.995835 23.1791295,143.873382 26.6202879,148.098786 C30.0556184,152.327625 34.3588595,155.914195 39.2283047,158.557971 C44.0910255,161.212051 49.5060531,162.931921 55.0613988,163.585781 C60.6149514,164.252092 66.3038908,163.860119 71.7023312,162.445498 C77.1021166,161.030876 82.1988505,158.574715 86.6132702,155.277508 C91.0312764,151.985025 94.7683133,147.856647 97.5379168,143.196766 C100.314693,138.540751 102.113277,133.352803 102.795142,128.029617 C103.468042,122.710725 103.114333,117.253591 101.6058,112.084103 C100.135821,106.905171 97.5549522,102.031058 94.1232083,97.7910569"/>
      <path fill="#FFFFFF" fill-rule="nonzero" d="M36.3966791,88.2350295 C36.3966791,87.0838357 37.3708052,86.1505282 38.572899,86.1505282 C39.7749929,86.1505282 40.7495666,87.0838357 40.7495666,88.2350295 C40.7495666,89.3862233 39.7749929,90.3191021 38.572899,90.3191021 C37.3708052,90.3191021 36.3966791,89.3862233 36.3966791,88.2350295"/>
      <path fill="#7DACBC" fill-rule="nonzero" d="M90.0822918,108.382923 C90.3339564,108.840499 90.5754259,109.304183 90.807773,109.772447 C90.5754259,109.304183 90.3339564,108.840499 90.0822918,108.382923 M90.0822918,108.382923 C89.2510297,106.418698 88.2782005,104.558391 87.1803668,102.824824 C88.2782005,104.558391 89.2510297,106.418698 90.0822918,108.382923 M92.9842168,113.941021 C93.5537046,114.848569 94.0373587,115.775956 94.4351793,116.72007 C94.0373587,115.775956 93.5537046,114.848569 92.9842168,113.941021 M92.9842168,116.72007 C93.2958763,117.63163 93.5389965,118.55864 93.709698,119.49912 C93.5389965,118.55864 93.2958763,117.63163 92.9842168,116.72007 M91.5332543,111.161972 C91.7866274,111.620432 92.029096,112.083282 92.2587355,112.551496 C92.029096,112.083282 91.7866274,111.620432 91.5332543,111.161972"/>
      <path fill="#A1D1E1" fill-rule="nonzero" d="M87.1803668,104.214349 C85.4652736,102.174949 83.517652,100.311967 81.3765167,98.65625 C83.517652,100.311967 85.4652736,102.174949 87.1803668,104.214349"/>
      <g opacity=".8" transform="translate(94.435 119.5)">
        <mask id="h" fill="white">
          <use xlink:href="#g"/>
        </mask>
        <path fill="#E6F9FF" fill-rule="nonzero" d="M0.363466107,0.0104214349 C0.383054101,0.173690581 0.401191132,0.337654489 0.418602682,0.500228873 C0.401191132,0.337654489 0.383054101,0.173690581 0.363466107,0.0104214349" mask="url(#h)"/>
      </g>
      <path fill="#E6F9FF" fill-rule="nonzero" d="M77.1310005,112.280738 L82.5522109,107.089077 L77.1310005,112.280738 Z" opacity=".8"/>
      <g opacity=".8" transform="translate(92.984 116.72)">
        <mask id="j" fill="white">
          <use xlink:href="#i"/>
        </mask>
        <path fill="#E6F9FF" fill-rule="nonzero" d="M0.161056838,0.183417254 C0.199507344,0.353634023 0.238683332,0.523850792 0.274957394,0.694762324 C0.238683332,0.523850792 0.199507344,0.353634023 0.161056838,0.183417254" mask="url(#j)"/>
      </g>
      <path stroke="#124354" stroke-width=".35" d="M0.12261655,123.667694 L111.846729,123.667694"/>
      <path fill="#7DACBC" fill-rule="nonzero" d="M83.0620342,106.563185 L77.0236292,112.092711 C79.0418177,115.042046 80.2095135,118.527969 80.2095135,122.264638 C80.2095135,122.269289 80.2090517,122.273941 80.2090517,122.278169 L94.4351793,122.278169 C94.4351793,121.181313 94.3728468,120.097141 94.2541842,119.028193 C94.2431027,118.928824 94.2310981,118.829456 94.2195549,118.730511 C94.0971985,117.726257 93.9235909,116.736803 93.7010407,115.76384 C93.6779546,115.65982 93.6530215,115.556223 93.6285503,115.452627 C93.3824523,114.426385 93.0832563,113.418326 92.730962,112.431832 C92.5832109,112.018291 92.426687,111.608978 92.2613905,111.203048 C92.0960938,110.797964 91.9220244,110.396262 91.7391824,109.998789 C91.5563404,109.601316 91.3647256,109.208072 91.1652616,108.819056 C90.9653358,108.430039 90.757099,108.044829 90.541013,107.664692 C89.5677023,105.95429 88.4290948,104.334376 87.1436599,102.824824 L83.0620342,106.563185 L83.0620342,106.563185 Z"/>
      <path fill="#39BA91" fill-rule="nonzero" d="M58.9272546,104.846396 C66.1253611,104.846396 72.4406265,108.635786 76.0012857,114.333672 L81.8056662,108.51158 L85.7294043,104.575725 C84.2659919,102.69216 82.6041735,100.971531 80.7772383,99.4423304 C80.5162476,99.2241911 80.2517061,99.0096133 79.9840573,98.7990421 C74.3368039,94.3583506 67.2221435,91.7086268 59.4896275,91.7086268 C58.0550661,91.7086268 56.6418104,91.7994439 55.2542983,91.9766263 C54.699915,92.0469652 54.1495265,92.1315497 53.6031326,92.2294898 C52.7846515,92.3759547 51.9763791,92.552692 51.1796472,92.7583662 C37.1034586,96.3910522 26.6336469,109.03645 26.2505943,124.196236 C26.2434926,124.482488 26.2399416,124.769186 26.2399416,125.057218 L38.791465,125.057218 L38.791465,125.042972 C38.791465,113.88849 47.8058538,104.846396 58.9272546,104.846396"/>
      <g opacity=".8" transform="translate(26.24 90.32)">
        <mask id="l" fill="white">
          <use xlink:href="#k"/>
        </mask>
        <path fill="#E6F9FF" fill-rule="nonzero" d="M33.3109392,13.1674281 C40.6314642,13.1674281 47.0541336,16.9024703 50.675349,22.5186364 L56.5784449,16.780046 L60.5689143,12.9006394 C59.0806136,11.0440882 57.3905325,9.34813677 55.5325267,7.8408682 C55.2670973,7.62585753 54.9980565,7.41435726 54.725856,7.20680616 C48.9825595,2.82980352 41.7468997,0.218082236 33.8828764,0.218082236 C32.4239175,0.218082236 30.9866262,0.307596877 29.5755169,0.482238186 C29.0117051,0.551568152 28.4519559,0.634939631 27.8962695,0.731475028 C27.0638686,0.875839325 26.2418499,1.05004184 25.431568,1.25276617 C11.115985,4.83335178 0.468112747,17.2973879 0.0785454368,32.2397509 C0.071322868,32.5218975 0.0677115835,32.804483 0.0677115835,33.0883847 L12.8326993,33.0883847 L12.8326993,33.0743433 C12.8326993,22.0798391 22.0003963,13.1674281 33.3109392,13.1674281" mask="url(#l)"/>
      </g>
      <path fill="#A1D1E1" fill-rule="nonzero" d="M87.1803668,102.824824 L82.8274792,106.993398 L87.1803668,102.824824 Z"/>
      <g opacity=".8" transform="translate(82.827 102.825)">
        <mask id="n" fill="white">
          <use xlink:href="#m"/>
        </mask>
        <path fill="#E6F9FF" fill-rule="nonzero" d="M3.99464487,0.166742958 L0.146692309,3.85217918 L3.99464487,0.166742958 Z" mask="url(#n)"/>
      </g>
      <path fill="#FFFFFF" fill-rule="nonzero" d="M77.0236292,112.551496 L65.4159292,123.667694 L77.0236292,112.551496 Z"/>
      <g opacity=".8" transform="translate(65.416 112.551)">
        <mask id="p" fill="white">
          <use xlink:href="#o"/>
        </mask>
        <path fill="#E6F9FF" fill-rule="nonzero" d="M11.2636478,0.141398028 L0.0793966682,10.8520763 L11.2636478,0.141398028 Z" mask="url(#p)"/>
      </g>
      <path fill="#FFFFFF" fill-rule="nonzero" d="M79.9255542,123.652926 C79.9255542,119.574803 78.740923,115.769877 76.6947419,112.551496 L65.4159292,123.667694 L79.9255542,123.667694 C79.9255542,123.663079 79.9255542,123.658003 79.9255542,123.652926"/>
      <g opacity=".8" transform="translate(77.024 102.825)">
        <mask id="r" fill="white">
          <use xlink:href="#q"/>
        </mask>
        <path fill="#E6F9FF" fill-rule="nonzero" d="M11.2980066,1.41560496 C10.9748482,0.993189464 10.6414751,0.577614708 10.2969585,0.170590872 L6.19247581,3.95095301 L0.120255772,9.54197264 C0.424841821,9.9900409 0.708069702,10.4517906 0.972725262,10.9233739 L11.2980066,1.41560496 L11.2980066,1.41560496 Z" mask="url(#r)"/>
      </g>
      <path fill="#E5E5E5" fill-rule="nonzero" d="M80.7272805,122.264756 C80.7272805,122.269366 80.7272805,122.273977 80.7272805,122.278169 L94.4351793,122.278169 C94.4351793,121.190836 94.3751135,120.116077 94.260766,119.056409 C94.2500877,118.957903 94.2389645,118.859398 94.2273962,118.760473 C94.1094893,117.765777 93.942195,116.784913 93.7286279,115.820397 C93.7054914,115.717281 93.6819101,115.614584 93.6578837,115.511886 C93.4207352,114.494555 93.1324194,113.495247 92.7929367,112.517318 C92.6514484,112.107367 92.5001716,111.701608 92.3408861,111.299202 C92.1816006,110.897635 92.0134164,110.499421 91.8381134,110.105399 C91.6619204,109.711377 91.4772738,109.321547 91.2846183,108.935908 C91.0924079,108.550269 90.8917437,108.168403 90.6830708,107.791567 C89.9952064,106.547463 89.2205805,105.35324 88.3680916,104.214349 L78.4745917,113.535069 C79.9121658,116.149867 80.7272805,119.117189 80.7272805,122.264756"/>
      <g opacity=".8" transform="translate(78.475 104.214)">
        <mask id="t" fill="white">
          <use xlink:href="#s"/>
        </mask>
        <path fill="#E6F9FF" fill-rule="nonzero" d="M2.28724086,19.176577 C2.28724086,19.1814404 2.28724086,19.1863037 2.28724086,19.1907249 L15.9464003,19.1907249 C15.9464003,18.0438618 15.8865481,16.9102623 15.7726072,15.7925792 C15.7619669,15.6886807 15.7508831,15.5847821 15.7393561,15.4804415 C15.6218685,14.4312872 15.455169,13.3967229 15.2423611,12.3794014 C15.2193069,12.2706395 15.1958094,12.1623198 15.1718686,12.054 C14.9355632,10.9809712 14.6482726,9.92695356 14.3099968,8.89548415 C14.1690116,8.46308934 14.0182727,8.03511575 13.8595535,7.61067914 C13.7008343,7.18712677 13.5332482,6.76711136 13.3585684,6.35151717 C13.1830019,5.93592297 12.9990119,5.52475 12.8070414,5.11799824 C12.6155144,4.71124647 12.4155637,4.30847381 12.2076327,3.9110066 C11.5222141,2.59879006 10.7503424,1.33918596 9.90088447,0.137941901 L0.0425615667,9.96895511 C1.47502429,12.7269089 2.28724086,15.8566868 2.28724086,19.176577" mask="url(#t)"/>
      </g>
      <g opacity=".8" transform="translate(65.416 112.551)">
        <mask id="v" fill="white">
          <use xlink:href="#u"/>
        </mask>
        <path fill="#E6F9FF" fill-rule="nonzero" d="M10.4293035,0.141398028 L0.0735154336,10.8520763 L2.25189381,10.8520763 L11.2186271,1.5776107 C10.9731458,1.08716408 10.7113276,0.607389014 10.4293035,0.141398028" mask="url(#v)"/>
      </g>
      <path fill="#E5E5E5" fill-rule="nonzero" d="M79.9255542,122.265378 C79.9255542,119.263957 79.1051335,116.434411 77.6582014,113.941021 L68.3178542,122.278169 L79.9255542,122.278169 C79.9255542,122.274172 79.9255542,122.269775 79.9255542,122.265378"/>
      <g opacity=".8" transform="translate(68.318 113.941)">
        <mask id="x" fill="white">
          <use xlink:href="#w"/>
        </mask>
        <path fill="#E6F9FF" fill-rule="nonzero" d="M11.2461417,9.44990449 C11.2461417,6.13001431 10.4585377,3.00023636 9.06948296,0.24228257 L0.102749641,9.46405238 L11.2461417,9.46405238 C11.2461417,9.45963116 11.2461417,9.45476782 11.2461417,9.44990449" mask="url(#x)"/>
      </g>
      <path fill="#FFFFFF" fill-rule="nonzero" d="M59.7131924,104.214349 C48.4378056,104.214349 39.2986041,112.917555 39.2986041,123.653982 L39.2986041,123.667694 L66.1838497,123.667694 L77.0236292,113.346053 C73.4136693,107.861717 67.0109633,104.214349 59.7131924,104.214349"/>
      <g opacity=".8" transform="translate(39.299 104.214)">
        <mask id="z" fill="white">
          <use xlink:href="#y"/>
        </mask>
        <path fill="#E6F9FF" fill-rule="nonzero" d="M20.3240244,0.00338319045 C9.20357465,0.00338319045 0.189956597,8.59288084 0.189956597,19.1890333 L0.189956597,19.202566 L26.7057671,19.202566 L37.3965955,9.01577964 C33.8362407,3.60309783 27.5215154,0.00338319045 20.3240244,0.00338319045" mask="url(#z)"/>
      </g>
      <path fill="#39BA91" fill-rule="nonzero" d="M58.8816851,5.85626007e-15 C56.0798809,5.85626007e-15 53.8082292,2.17546358 53.8082292,4.85821938 C53.8082292,6.22267476 54.3964746,7.45443468 55.3414543,8.33714789 L62.5140042,1.46830398 C61.5926922,0.56333751 60.3056092,0 58.8816851,0"/>
      <path fill="#074354" fill-rule="nonzero" d="M58.8374496,9.72667254 C61.6689142,9.72667254 63.9649667,7.52784142 63.9649667,4.81585251 C63.9649667,3.48255862 63.4095472,2.27463852 62.5087849,1.38952465 L55.2591917,8.3321496 C56.1830059,9.19435463 57.4447692,9.72667254 58.8374496,9.72667254"/>
      <rect width="82.705" height="1.39" x="20.436" y="119.499" fill="#7DACBC" fill-rule="nonzero"/>
      <path stroke="#124354" stroke-width=".2" d="M27.6909041,116.72007 L94.4351793,116.72007"/>
    </g>
    <g transform="translate(123 5)">
      <g opacity=".56" transform="translate(0 20.742)">
        <mask id="B" fill="white">
          <use xlink:href="#A"/>
        </mask>
        <path stroke="#E5E5E5" stroke-width=".14" d="M0.0777315068,78.1657232 C0.0777315068,35.059544 36.753074,0.115587971 81.9950575,0.115587971 C127.236142,0.115587971 163.912383,35.059544 163.912383,78.1657232 C163.912383,121.271902 127.236142,156.215858 81.9950575,156.215858 C36.753074,156.215858 0.0777315068,121.271902 0.0777315068,78.1657232 Z" mask="url(#B)"/>
      </g>
      <path fill="#39BA91" fill-rule="nonzero" d="M82.3913731,38.71875 C72.9577034,38.71875 65.3097345,46.0059806 65.3097345,54.994173 C65.3097345,60.1696075 67.8481796,64.7775018 71.8003048,67.7578125 L95.7876106,44.9032366 C92.6595883,41.1373246 87.823315,38.71875 82.3913731,38.71875"/>
      <path stroke="#A9CAD3" stroke-width=".2" d="M68.2123894,71.4516511 C72.0300381,74.3314539 76.8517711,76.0546875 82.0988207,76.0546875 C94.4684817,76.0546875 104.495575,66.5008408 104.495575,54.7158336 C104.495575,49.7160054 102.686095,45.1222655 99.6636418,41.484375"/>
      <rect width="1.451" height="98.18" x="81.274" y="5.531" fill="#E5E5E5" fill-rule="nonzero"/>
      <g opacity=".16" transform="translate(55.15 29.04)">
        <mask id="D" fill="white">
          <use xlink:href="#C"/>
        </mask>
        <path fill="#FFFFFF" fill-rule="nonzero" d="M0.12101838,28.2848846 C0.12101838,34.8138869 2.41232948,40.814163 6.23981485,45.5639245 L46.0687052,6.42896124 C41.2346685,2.66864197 35.1279292,0.417276968 28.4830824,0.417276968 C12.8194636,0.417276968 0.12101838,12.8939022 0.12101838,28.2848846" mask="url(#D)"/>
      </g>
      <g opacity=".13" transform="translate(52.248 27.656)">
        <mask id="F" fill="white">
          <use xlink:href="#E"/>
        </mask>
        <path stroke="#FFFFFF" stroke-width=".2" d="M50.4993234,6.67684285 C45.2380687,2.70817098 38.5922735,0.332364491 31.360296,0.332364491 C14.3124646,0.332364491 0.492680712,13.4997376 0.492680712,29.7427672 C0.492680712,36.6333342 2.98665205,42.964535 7.15241131,47.9782705" mask="url(#F)"/>
      </g>
      <path fill="#FFFFFF" fill-rule="nonzero" d="M101.59292,56.217416 C101.59292,52.218131 100.145244,48.5428066 97.7277342,45.6328125 L72.5663717,69.6063459 C75.6205488,71.9097287 79.4779764,73.2890625 83.6758725,73.2890625 C93.5709133,73.2890625 101.59292,65.6457621 101.59292,56.217416"/>
      <g opacity=".67" transform="translate(82.726 56.695)">
        <mask id="H" fill="white">
          <use xlink:href="#G"/>
        </mask>
        <polygon fill="#E5F5F9" fill-rule="nonzero" points="1.389 16.122 .091 16.173 .091 1.204 1.369 .039" mask="url(#H)"/>
      </g>
      <path fill="#FFFFFF" fill-rule="nonzero" d="M117.245473,97.3186738 C120.68077,101.536057 123.266324,106.386198 124.741157,111.539686 C126.253656,116.68463 126.612387,122.117539 125.942457,127.414156 C125.263559,132.714191 123.467213,137.881779 120.691532,142.521712 C117.921232,147.164638 114.183255,151.279054 109.761896,154.562042 C105.344124,157.849302 100.241624,160.300436 94.8342026,161.713778 C89.4281267,163.12712 83.7292366,163.520618 78.1653189,162.860944 C72.5991592,162.212806 67.1724562,160.50167 62.2973021,157.858703 C57.4158703,155.225134 53.0989913,151.652898 49.6538285,147.436796 C46.2073206,143.220694 43.6388067,138.3556 42.1581446,133.201256 C40.6707562,128.048195 40.2779457,122.617422 40.9635704,117.316105 C41.6469529,112.013934 43.4477824,106.845065 46.2274991,102.206412 C49.001835,97.5643424 52.7438476,93.4512076 57.1670007,90.1712102 C61.5870148,86.8869402 66.6913084,84.4396528 72.0978327,83.0301554 C77.5039087,81.6061315 83.1987631,81.2570683 88.7622323,81.8864074 C94.3248046,82.5507811 99.7394005,84.2674712 104.616348,86.8989032 C109.477153,89.5585338 113.786857,93.1166709 117.245473,97.3186738 M117.245473,97.3186738 C113.783719,93.11838 109.472221,89.5645153 104.610967,86.90873 C99.7335711,84.2807159 94.3189752,82.567871 88.7590934,81.9081973 C83.1983146,81.2827033 77.507496,81.6351846 72.106801,83.0621992 C66.7056575,84.4734056 61.6080902,86.9215475 57.1952506,90.2053902 C52.7783754,93.4853877 49.0448827,97.5955316 46.2772731,102.233329 C43.5047311,106.868136 41.7097309,112.029742 41.0317292,117.32465 C40.3510372,122.617422 40.7474349,128.039223 42.2352718,133.181603 C43.7163824,138.32441 46.2835508,143.178396 49.7255747,147.383389 C53.1617692,151.591801 57.4660926,155.161046 62.3367625,157.792051 C67.2007063,160.43331 72.6170959,162.144873 78.1738388,162.795574 C83.7287881,163.458666 89.4191584,163.068587 94.8189565,161.6608 C100.2201,160.253011 105.318116,157.808714 109.733646,154.527434 C114.152763,151.250856 117.89074,147.14242 120.66104,142.505049 C123.438515,137.871525 125.237551,132.708637 125.919588,127.411166 C126.592657,122.117967 126.238858,116.687193 124.729946,111.542677 C123.259598,106.388762 120.67808,101.538194 117.245473,97.3186738"/>
      <path fill="#FFFFFF" fill-rule="nonzero" d="M59.5044248,87.8088071 C59.5044248,86.6631742 60.4787958,85.734375 61.681192,85.734375 C62.8835882,85.734375 63.8584071,86.6631742 63.8584071,87.8088071 C63.8584071,88.95444 62.8835882,89.8828125 61.681192,89.8828125 C60.4787958,89.8828125 59.5044248,88.95444 59.5044248,87.8088071"/>
      <path fill="#7DACBC" fill-rule="nonzero" d="M113.20354,107.859375 C113.455268,108.314741 113.696798,108.776185 113.929204,109.242188 C113.696798,108.776185 113.455268,108.314741 113.20354,107.859375 M113.20354,107.859375 C112.372069,105.904639 111.398995,104.053318 110.300885,102.328125 C111.398995,104.053318 112.372069,105.904639 113.20354,107.859375 M116.106195,113.390625 C116.675826,114.293789 117.159602,115.216696 117.557522,116.15625 C117.159602,115.216696 116.675826,114.293789 116.106195,113.390625 M116.106195,116.15625 C116.417933,117.063407 116.661114,117.985939 116.831858,118.921875 C116.661114,117.985939 116.417933,117.063407 116.106195,116.15625"/>
      <path stroke="#124354" stroke-width=".35" d="M23.2212389,123.070313 L134.973451,123.070313"/>
      <path fill="#7DACBC" fill-rule="nonzero" d="M114.654867,110.625 C114.908304,111.081246 115.150834,111.54186 115.380531,112.007813 C115.150834,111.54186 114.908304,111.081246 114.654867,110.625"/>
      <path fill="#A1D1E1" fill-rule="nonzero" d="M110.300885,103.710938 C108.58536,101.681389 106.637249,99.8274061 104.495575,98.1796875 C106.637249,99.8274061 108.58536,101.681389 110.300885,103.710938"/>
      <g opacity=".8" transform="translate(117.558 118.922)">
        <mask id="J" fill="white">
          <use xlink:href="#I"/>
        </mask>
        <path fill="#E6F9FF" fill-rule="nonzero" d="M0.363557522,0.0103710937 C0.383150442,0.172851562 0.401292035,0.336023437 0.418707965,0.4978125 C0.401292035,0.336023437 0.383150442,0.172851562 0.363557522,0.0103710937" mask="url(#J)"/>
      </g>
      <path fill="#E6F9FF" fill-rule="nonzero" d="M100.248991,111.738362 L105.671565,106.571779 L100.248991,111.738362 Z" opacity=".8"/>
      <g opacity=".8" transform="translate(116.106 116.156)">
        <mask id="L" fill="white">
          <use xlink:href="#K"/>
        </mask>
        <path fill="#E6F9FF" fill-rule="nonzero" d="M0.161097345,0.18253125 C0.199557522,0.351925781 0.238743363,0.521320313 0.275026549,0.69140625 C0.238743363,0.521320313 0.199557522,0.351925781 0.161097345,0.18253125" mask="url(#L)"/>
      </g>
      <path fill="#7DACBC" fill-rule="nonzero" d="M106.181517,106.048427 L100.141593,111.551243 C102.160289,114.486331 103.328279,117.955415 103.328279,121.674034 C103.328279,121.678663 103.327817,121.683292 103.327817,121.6875 L117.557522,121.6875 C117.557522,120.595942 117.495174,119.517008 117.376482,118.453223 C117.365397,118.354335 117.35339,118.255446 117.341844,118.156979 C117.219456,117.157576 117.045805,116.172902 116.823199,115.204638 C116.800107,115.101121 116.775168,114.998025 116.75069,114.894929 C116.50453,113.873645 116.205259,112.870455 115.852876,111.888726 C115.705088,111.477182 115.548525,111.069847 115.383187,110.665878 C115.217848,110.26275 115.043735,109.862989 114.860847,109.467436 C114.677959,109.071883 114.486296,108.680538 114.286782,108.293401 C114.086806,107.906264 113.878517,107.522914 113.662376,107.144614 C112.688821,105.442474 111.549927,103.830385 110.264169,102.328125 L106.181517,106.048427 L106.181517,106.048427 Z"/>
      <path fill="#39BA91" fill-rule="nonzero" d="M82.0406669,104.339932 C89.2405837,104.339932 95.5574375,108.111017 99.1189923,113.781379 L104.924833,107.987411 L108.849558,104.070568 C107.385777,102.196102 105.723541,100.483784 103.896146,98.9619707 C103.63509,98.7448851 103.370482,98.5313439 103.102766,98.3217899 C97.4540918,93.9025493 90.337642,91.265625 82.6031813,91.265625 C81.1682591,91.265625 79.7546478,91.3560034 78.3667868,91.53233 C77.8122641,91.6023291 77.2617371,91.686505 76.7152058,91.783972 C75.8965188,91.9297294 75.0880432,92.1056129 74.2911109,92.3102937 C60.211382,95.9254318 49.7389371,108.509745 49.3557881,123.596302 C49.3486846,123.881171 49.3451327,124.166484 49.3451327,124.453125 L61.899813,124.453125 L61.899813,124.438948 C61.899813,113.338347 70.916469,104.339932 82.0406669,104.339932"/>
      <g opacity=".8" transform="translate(49.345 89.883)">
        <mask id="N" fill="white">
          <use xlink:href="#M"/>
        </mask>
        <path fill="#E6F9FF" fill-rule="nonzero" d="M33.3193172,13.1038224 C40.6416834,13.1038224 47.0659681,16.8208223 50.6880943,22.4098594 L56.5926749,16.6989894 L60.584148,12.8383224 C59.0954729,10.9907393 57.4049667,9.30298027 55.5464936,7.80299261 C55.2809975,7.58902055 55.011889,7.37854195 54.73962,7.17199343 C48.9948791,2.81613405 41.7573995,0.217028782 33.8913982,0.217028782 C32.4320724,0.217028782 30.9944196,0.30611102 29.5829554,0.479908718 C29.0190018,0.548903782 28.4591119,0.631872532 27.9032857,0.727941612 C27.0706754,0.871608552 26.2484499,1.04496957 25.4379642,1.24671464 C11.1187807,4.81000411 0.468230481,17.2138323 0.0785651917,32.0840156 C0.0713408064,32.3647993 0.0677286136,32.6460198 0.0677286136,32.9285501 L12.8359268,32.9285501 L12.8359268,32.9145765 C12.8359268,21.9731817 22.0059296,13.1038224 33.3193172,13.1038224" mask="url(#N)"/>
      </g>
      <path fill="#A1D1E1" fill-rule="nonzero" d="M110.300885,102.328125 L105.946903,106.476563 L110.300885,102.328125 Z"/>
      <g opacity=".8" transform="translate(105.947 102.328)">
        <mask id="P" fill="white">
          <use xlink:href="#O"/>
        </mask>
        <path fill="#E6F9FF" fill-rule="nonzero" d="M3.99564956,0.1659375 L0.146729204,3.83357109 L3.99564956,0.1659375 Z" mask="url(#P)"/>
      </g>
      <path fill="#FFFFFF" fill-rule="nonzero" d="M100.141593,112.007813 L88.5309735,123.070313 L100.141593,112.007813 Z"/>
      <g opacity=".8" transform="translate(88.531 112.008)">
        <mask id="R" fill="white">
          <use xlink:href="#Q"/>
        </mask>
        <path fill="#E6F9FF" fill-rule="nonzero" d="M11.2664807,0.140715 L0.0794166372,10.799655 L11.2664807,0.140715 Z" mask="url(#R)"/>
      </g>
      <path fill="#FFFFFF" fill-rule="nonzero" d="M103.044248,123.055616 C103.044248,118.997193 101.859319,115.210647 99.8126229,112.007813 L88.5309735,123.070313 L103.044248,123.070313 C103.044248,123.06572 103.044248,123.060668 103.044248,123.055616"/>
      <g opacity=".8" transform="translate(100.142 102.328)">
        <mask id="T" fill="white">
          <use xlink:href="#S"/>
        </mask>
        <path fill="#E6F9FF" fill-rule="nonzero" d="M11.3008481,1.40876683 C10.9776085,0.988391827 10.6441515,0.57482452 10.2995483,0.169766827 L6.19403327,3.93186779 L0.120286018,9.4958798 C0.424948673,9.94178365 0.708247788,10.4013029 0.972969912,10.8706082 L11.3008481,1.40876683 L11.3008481,1.40876683 Z" mask="url(#T)"/>
      </g>
      <path fill="#E5E5E5" fill-rule="nonzero" d="M103.846176,121.674151 C103.846176,121.67874 103.846176,121.683328 103.846176,121.6875 L117.557522,121.6875 C117.557522,120.605419 117.497441,119.535852 117.383065,118.481303 C117.372384,118.383273 117.361258,118.285243 117.349687,118.186797 C117.23175,117.196905 117.064414,116.220779 116.850793,115.260923 C116.827651,115.158304 116.804063,115.056103 116.780031,114.953902 C116.542823,113.941485 116.254435,112.947005 115.914866,111.973799 C115.773343,111.565828 115.622028,111.162029 115.462702,110.761568 C115.303377,110.36194 115.13515,109.96565 114.959803,109.573531 C114.783566,109.181412 114.598873,108.793465 114.406169,108.409689 C114.21391,108.025913 114.013195,107.645892 113.80447,107.270876 C113.116433,106.032782 112.341612,104.844328 111.488909,103.710938 L101.59292,112.986634 C103.030856,115.588801 103.846176,118.541789 103.846176,121.674151"/>
      <g opacity=".8" transform="translate(101.593 103.71)">
        <mask id="V" fill="white">
          <use xlink:href="#U"/>
        </mask>
        <path fill="#E6F9FF" fill-rule="nonzero" d="M2.28781612,19.0839439 C2.28781612,19.0887838 2.28781612,19.0936236 2.28781612,19.0980234 L15.950411,19.0980234 C15.950411,17.9567003 15.8905437,16.8285767 15.7765742,15.7162926 C15.7659312,15.6128959 15.7548446,15.5094993 15.7433147,15.4056627 C15.6257975,14.3615763 15.4590561,13.3320096 15.2461947,12.3196023 C15.2231347,12.2113658 15.1996313,12.1035693 15.1756844,11.9957727 C14.9393196,10.9279272 14.6519568,9.87900106 14.3135959,8.8525142 C14.1725752,8.42220809 14.0217984,7.99630184 13.8630393,7.57391549 C13.7042802,7.1524091 13.5366519,6.73442259 13.3619282,6.32083594 C13.1863176,5.90724929 13.0022812,5.4980625 12.8102625,5.09327557 C12.6186873,4.68848863 12.4186863,4.28766158 12.210703,3.89211434 C11.5251121,2.58623651 10.7530462,1.33271697 9.90337464,0.137275568 L0.0425722713,9.92079972 C1.47539528,12.6654311 2.28781612,15.7800905 2.28781612,19.0839439" mask="url(#V)"/>
      </g>
      <g opacity=".8" transform="translate(88.531 112.008)">
        <mask id="X" fill="white">
          <use xlink:href="#W"/>
        </mask>
        <path fill="#E6F9FF" fill-rule="nonzero" d="M10.4319266,0.140715 L0.0735339234,10.799655 L2.25246018,10.799655 L11.2214487,1.56999 C10.9759056,1.0819125 10.7140216,0.604455 10.4319266,0.140715" mask="url(#X)"/>
      </g>
      <path fill="#E5E5E5" fill-rule="nonzero" d="M103.044248,121.674771 C103.044248,118.687848 102.223621,115.871971 100.776325,113.390625 L91.4336283,121.6875 L103.044248,121.6875 C103.044248,121.683522 103.044248,121.679147 103.044248,121.674771"/>
      <g opacity=".8" transform="translate(91.434 113.39)">
        <mask id="Z" fill="white">
          <use xlink:href="#Y"/>
        </mask>
        <path fill="#E6F9FF" fill-rule="nonzero" d="M11.2489702,9.40425639 C11.2489702,6.10040306 10.4611681,2.98574361 9.07176402,0.241112215 L0.102775483,9.41833594 L11.2489702,9.41833594 C11.2489702,9.41393608 11.2489702,9.40909623 11.2489702,9.40425639" mask="url(#Z)"/>
      </g>
      <path fill="#FFFFFF" fill-rule="nonzero" d="M82.8268024,103.710938 C71.5485797,103.710938 62.4070796,112.372103 62.4070796,123.056667 L62.4070796,123.070313 L89.299087,123.070313 L100.141593,112.798531 C96.5307251,107.340687 90.1264087,103.710938 82.8268024,103.710938"/>
      <g opacity=".8" transform="translate(62.407 103.71)">
        <mask id="ab" fill="white">
          <use xlink:href="#aa"/>
        </mask>
        <path fill="#E6F9FF" fill-rule="nonzero" d="M20.3291361,0.00336684783 C9.20588943,0.00336684783 0.190004373,8.55137262 0.190004373,19.09634 L0.190004373,19.1098074 L26.7124839,19.1098074 L37.4060011,8.97222859 C33.8447508,3.58569294 27.5284373,0.00336684783 20.3291361,0.00336684783" mask="url(#ab)"/>
      </g>
      <path fill="#39BA91" fill-rule="nonzero" d="M81.995086,5.8279712e-15 C79.192577,5.8279712e-15 76.920354,2.16495492 76.920354,4.83475158 C76.920354,6.19261591 77.5087474,7.41842577 78.4539647,8.296875 L85.6283186,1.46121129 C84.7067749,0.560616289 83.4193682,0 81.995086,0"/>
      <path fill="#074354" fill-rule="nonzero" d="M81.9508393,9.6796875 C84.783016,9.6796875 87.079646,7.49147792 87.079646,4.79258937 C87.079646,3.465736 86.5240869,2.2636508 85.623098,1.3828125 L78.3716814,8.29190086 C79.295728,9.14994098 80.5578087,9.6796875 81.9508393,9.6796875"/>
      <rect width="82.726" height="1.383" x="43.54" y="118.922" fill="#39BA91" fill-rule="nonzero"/>
      <path stroke="#124354" stroke-width=".2" d="M50.7964602,116.15625 L117.557522,116.15625"/>
    </g>
    <g transform="translate(287)">
      <rect width="66.013" height="1.391" x=".131" y="164.193" fill="#BADDE5" fill-rule="nonzero"/>
      <path fill="#E5E5E5" fill-rule="nonzero" d="M59.2222222,62.6086957 C59.2222222,58.766858 62.45587,55.6521739 66.4444444,55.6521739 C70.4330189,55.6521739 73.6666667,58.766858 73.6666667,62.6086957 C73.6666667,66.4505333 70.4330189,69.5652174 66.4444444,69.5652174 C62.45587,69.5652174 59.2222222,66.4505333 59.2222222,62.6086957 M26,76.5217391 C26,74.9852533 27.2933733,73.7391304 28.8891109,73.7391304 C30.4844045,73.7391304 31.7777778,74.9852533 31.7777778,76.5217391 C31.7777778,78.058225 30.4844045,79.3043478 28.8891109,79.3043478 C27.2933733,79.3043478 26,78.058225 26,76.5217391"/>
      <path fill="#39BA91" fill-rule="nonzero" d="M79.4444444,56.3478261 C79.4444444,54.4264722 81.0608166,52.8695652 83.0555556,52.8695652 C85.0493957,52.8695652 86.6666667,54.4264722 86.6666667,56.3478261 C86.6666667,58.26918 85.0493957,59.826087 83.0555556,59.826087 C81.0608166,59.826087 79.4444444,58.26918 79.4444444,56.3478261 M65.560757,64 C50.8913245,64 39,75.4542682 39,89.5840227 C39,97.8716871 43.0928683,105.238036 49.4357744,109.913043 L86.6666667,74.0522669 C81.812667,67.9418773 74.1653974,64 65.560757,64"/>
      <path fill="#074354" fill-rule="nonzero" d="M91,89.5060979 C91,83.5758002 89.0040967,78.1110307 85.6465578,73.7391304 L49.1111111,110.143534 C53.4982725,113.489069 58.9834996,115.478261 64.9350751,115.478261 C79.3302358,115.478261 91,103.850218 91,89.5060979"/>
      <path fill="#074354" fill-rule="nonzero" d="M95.2057808,91.0904348 C95.2057808,84.6285991 92.9557376,78.672657 89.1710925,73.9087537 L47.9866513,113.578473 C52.9325092,117.223884 59.1150525,119.391575 65.8236944,119.391575 C82.0511049,119.391575 95.2057808,106.720425 95.2057808,91.0904348" opacity=".4"/>
      <g opacity=".18" transform="translate(44.778 68.174)">
        <mask id="ad" fill="white">
          <use xlink:href="#ac"/>
        </mask>
        <path fill="#7DACBC" fill-rule="nonzero" d="M56.3306927,20.4172295 C56.3306927,12.7744388 53.6482579,5.73062083 49.1371901,0.0954823054 L0.0435703125,47.0168331 C5.93920573,51.3282588 13.3091901,53.8919798 21.3058829,53.8919798 C40.6502213,53.8919798 56.3306927,38.9046229 56.3306927,20.4172295" mask="url(#ad)"/>
      </g>
      <path fill="#39BA91" fill-rule="nonzero" d="M64.9526715,16.6956522 C57.7990329,16.6956522 52,22.2814493 52,29.1716174 C52,33.1394682 53.9250816,36.6715386 56.921513,38.9565217 L75.1111111,21.4361965 C72.7388996,18.5495224 69.0719936,16.6956522 64.9526715,16.6956522"/>
      <polygon fill="#FFFFFF" fill-rule="nonzero" points="66.444 136.348 65 136.348 65.688 0 65.676 0"/>
      <path fill="#074354" fill-rule="nonzero" d="M78,29.7159569 C78,26.8984728 76.9913299,24.3099861 75.3068169,22.2608696 L57.7777778,39.1457366 C59.9054943,40.7683456 62.5931586,41.7391304 65.517283,41.7391304 C72.4107111,41.7391304 78,36.3560593 78,29.7159569"/>
      <path stroke="#FFFFFF" stroke-width=".12" d="M26,90.434993 C26,69.6880792 43.4608877,52.8695652 65.0002184,52.8695652 C86.5391123,52.8695652 104,69.6880792 104,90.434993 C104,111.181486 86.5391123,128 65.0002184,128 C43.4608877,128 26,111.181486 26,90.434993 Z"/>
      <path stroke="#124354" stroke-width=".29" d="M23.1111111,190.608696 L65,190.608696"/>
      <g fill-rule="nonzero" transform="translate(31.778 134.957)">
        <path fill="#E6F9FF" d="M38.8065915,0.901536355 C36.7695357,0.418874202 34.661058,0.11354255 32.5,0 C30.338942,0.11354255 28.2304643,0.418874202 26.1929704,0.901536355 C16.0291619,3.31016934 7.63819231,10.103586 3.26700102,19.0989626 C1.15019819,23.501607 0,28.2746465 0,33.3092168 C0,36.7278257 0.531062935,40.0252374 1.51519442,43.1304348 L63.4843674,43.1304348 C64.468937,40.0252374 65,36.7278257 65,33.3092168 C65,17.6207832 53.8411058,4.46388072 38.8065915,0.901536355 Z"/>
        <path fill="#124354" d="M13.0001853,15.7591029 C11.6675646,15.7591029 10.5828648,16.8035405 10.5828648,18.087135 C10.5828648,19.3703726 11.6675646,20.415167 13.0001853,20.415167 C14.332806,20.415167 15.4167647,19.3703726 15.4167647,18.087135 C15.4167647,16.8035405 14.332806,15.7591029 13.0001853,15.7591029 M13.0001853,20.8695652 C11.4070439,20.8695652 10.1111111,19.6216658 10.1111111,18.087135 C10.1111111,16.5529611 11.4070439,15.3043478 13.0001853,15.3043478 C14.5933267,15.3043478 15.8888889,16.5529611 15.8888889,18.087135 C15.8888889,19.6216658 14.5933267,20.8695652 13.0001853,20.8695652"/>
        <polygon fill="#124354" points="2.889 18.087 10.111 18.087 10.111 18.705 2.889 18.705"/>
        <path fill="#124354" d="M10.1109258,24.106929 C8.77830515,24.106929 7.69434646,25.1513665 7.69434646,26.4349611 C7.69434646,27.7181987 8.77830515,28.7629931 10.1109258,28.7629931 C11.4435465,28.7629931 12.5282464,27.7181987 12.5282464,26.4349611 C12.5282464,25.1513665 11.4435465,24.106929 10.1109258,24.106929 M10.1109258,29.2173913 C8.51778447,29.2173913 7.22222222,27.9691349 7.22222222,26.4349611 C7.22222222,24.9000733 8.51778447,23.6521739 10.1109258,23.6521739 C11.7040672,23.6521739 13,24.9000733 13,26.4349611 C13,27.9691349 11.7040672,29.2173913 10.1109258,29.2173913"/>
        <polygon fill="#124354" points="0 26.435 7.222 26.435 7.222 27.053 0 27.053"/>
      </g>
      <path fill="#124354" fill-rule="nonzero" d="M36.1111111,154.434783 L36.1111111,154.635826 C36.1443333,154.569043 36.1761111,154.501565 36.2086111,154.434783 L36.1111111,154.434783 Z"/>
      <path fill="#B8D6DD" fill-rule="nonzero" d="M73.5719419,135.901585 C70.9598065,135.285459 68.230684,134.956522 65.4221148,134.956522 C64.7957086,134.956522 64.1736677,134.975499 63.5555556,135.007549 C65.7084718,135.120147 67.8090058,135.422517 69.8383869,135.901585 C84.8162587,139.434713 95.9331117,152.481732 95.9331117,168.039641 C95.9331117,171.429809 95.4040496,174.699364 94.4231893,177.779149 C93.2581176,181.439214 91.4544173,184.828959 89.1356233,187.826087 L92.8691783,187.826087 C95.1879722,184.828959 96.991236,181.439214 98.1567443,177.779149 C99.137168,174.699364 99.6666667,171.429809 99.6666667,168.039641 C99.6666667,152.481732 88.5493771,139.434713 73.5719419,135.901585"/>
      <path fill="#E6F9FF" fill-rule="nonzero" d="M89.7741718,189.102525 C92.0809696,185.938365 93.876111,182.360153 95.0349394,178.495666 L33.6079192,178.495666 C34.7671818,182.360153 36.5618889,185.938365 38.8686869,189.102525 L89.7741718,189.102525 L89.7741718,189.102525 Z" opacity=".76"/>
    </g>
  </g>
</svg>
