<svg xmlns="http://www.w3.org/2000/svg" width="445" height="242" viewBox="0 0 445 242" xmlns:xlink="http://www.w3.org/1999/xlink">
  <defs>
    <rect id="a" width="1" height="1" x=".371" y=".011"/>
    <rect id="c" width="1" height="1" x=".164" y=".196"/>
    <rect id="e" width="69.074" height="38.77" x=".077" y=".257"/>
    <rect id="g" width="4.58" height="4.592" x=".175" y=".208"/>
    <rect id="i" width="12.837" height="12.871" x=".092" y=".171"/>
    <rect id="k" width="12.83" height="12.921" x=".138" y=".206"/>
    <rect id="m" width="18.439" height="22.533" x=".05" y=".163"/>
    <rect id="o" width="13.503" height="12.871" x=".09" y=".171"/>
    <rect id="q" width="13.5" height="10.554" x=".124" y=".278"/>
    <rect id="s" width="65.946" height="66.427" x=".051" y=".118"/>
  </defs>
  <g fill="none" fill-rule="evenodd">
    <g fill-rule="nonzero" transform="translate(257 130)">
      <path fill="#083749" d="M0.387666979,113 L20.7903614,88.4671053 C20.7903614,88.4671053 109.157812,88.9436382 108.801948,88.9436382 L88.0667444,113 L0.387666979,113 Z" opacity=".2"/>
      <path fill="#6594A4" d="M187.156571,96.9846185 L112.997226,96.9846185 C112.548704,96.9846185 112.18473,96.6194129 112.18473,96.1676977 L112.18473,93.8153596 C112.18473,93.3636443 112.548704,92.9979206 112.997226,92.9979206 L187.156571,92.9979206 C187.605609,92.9979206 187.969583,93.3636443 187.969583,93.8153596 L187.969583,96.1676977 C187.969583,96.6194129 187.605609,96.9846185 187.156571,96.9846185 M139.245078,91.562999 L89.1466505,91.562999 C88.8435108,91.562999 88.5970813,91.3164203 88.5970813,91.0113055 L88.5970813,89.422014 C88.5970813,89.1168991 88.8435108,88.8703205 89.1466505,88.8703205 L139.245078,88.8703205 C139.548217,88.8703205 139.794132,89.1168991 139.794132,89.422014 L139.794132,91.0113055 C139.794132,91.3164203 139.548217,91.562999 139.245078,91.562999"/>
      <path fill="#B8D6DD" d="M78.1501138,1.69082419 C73.9422499,0.65840611 69.5477596,0.1077486 65.0248989,0.1077486 C64.0159809,0.1077486 63.0142804,0.138829927 62.0182509,0.193740272 C65.4863102,0.381264278 68.8687892,0.888925949 72.1368176,1.69082419 C96.2570229,7.60819083 114.160292,29.4625078 114.160292,55.5210924 C114.160292,67.947925 110.089047,79.4200428 103.213763,88.662593 L109.226027,88.662593 C116.101312,79.4200428 120.173072,67.947925 120.173072,55.5210924 C120.173072,29.4625078 102.269803,7.60819083 78.1501138,1.69082419"/>
      <path fill="#E6F9FF" d="M62.0187664,0.193740272 C58.5512228,0.381264278 55.1687437,0.888925949 51.9001998,1.69082419 C27.7794793,7.60819083 9.87672559,29.4625078 9.87672559,55.5210924 C9.87672559,67.947925 13.9479704,79.4200428 20.8232547,88.662593 L103.213763,88.662593 C110.089047,79.4200428 114.160808,67.947925 114.160808,55.5210924 C114.160808,29.4625078 96.257538,7.60819083 72.1368176,1.69082419 C68.8682736,0.888925949 65.4857946,0.381264278 62.0187664,0.193740272 Z"/>
      <g fill="#124354" transform="translate(11.102 27.507)">
        <path d="M17.8783328,1.36227558 C16.0244394,1.36227558 14.5154444,2.87800829 14.5154444,4.74081583 C14.5154444,6.60310533 16.0244394,8.11935607 17.8783328,8.11935607 C19.7322262,8.11935607 21.2401901,6.60310533 21.2401901,4.74081583 C21.2401901,2.87800829 19.7322262,1.36227558 17.8783328,1.36227558 M17.8783328,8.7787982 C15.6620125,8.7787982 13.8591579,6.9677929 13.8591579,4.74081583 C13.8591579,2.51435677 15.6620125,0.702315405 17.8783328,0.702315405 C20.0946531,0.702315405 21.8969922,2.51435677 21.8969922,4.74081583 C21.8969922,6.9677929 20.0946531,8.7787982 17.8783328,8.7787982"/>
        <polygon points="3.921 4.411 14.238 4.411 14.238 5.07 3.921 5.07"/>
        <path d="M14.055905,11.5735276 C12.2020116,11.5735276 10.6940477,13.0892603 10.6940477,14.9520678 C10.6940477,16.8143573 12.2020116,18.3306081 14.055905,18.3306081 C15.9097984,18.3306081 17.4187934,16.8143573 17.4187934,14.9520678 C17.4187934,13.0892603 15.9097984,11.5735276 14.055905,11.5735276 M14.055905,18.9900502 C11.8395847,18.9900502 10.0372456,17.1785268 10.0372456,14.9520678 C10.0372456,12.7245727 11.8395847,10.9135674 14.055905,10.9135674 C16.2722253,10.9135674 18.0750799,12.7245727 18.0750799,14.9520678 C18.0750799,17.1785268 16.2722253,18.9900502 14.055905,18.9900502"/>
        <polygon points=".1 14.622 10.417 14.622 10.417 15.282 .1 15.282"/>
      </g>
    </g>
    <g transform="translate(111 41)">
      <path fill="#083749" fill-rule="nonzero" d="M89.7627583,201.820098 L13.3228346,201.820098 L57.7982354,148.432056 C57.7982354,148.432056 135.803482,148.90778 135.447618,148.90778 L89.7627583,201.820098 Z" opacity=".2"/>
      <path stroke="#E5E5E5" stroke-width=".14" d="M0.0891068492,118.790061 C0.0891068492,66.7869628 42.1315726,24.630734 93.9943341,24.630734 C145.856066,24.630734 187.899561,66.7869628 187.899561,118.790061 C187.899561,170.793158 145.856066,212.949387 93.9943341,212.949387 C42.1315726,212.949387 0.0891068492,170.793158 0.0891068492,118.790061 Z"/>
      <path fill="#A1D1E1" fill-rule="nonzero" d="M95.4078484,46.7560976 C84.4111747,46.7560976 75.496063,55.6957136 75.496063,66.7219859 C75.496063,73.0709543 78.4550868,78.7236927 83.0620142,82.3797909 L111.023622,54.3429216 C107.377338,49.7230858 101.739773,46.7560976 95.4078484,46.7560976"/>
      <path stroke="#A9CAD3" stroke-width=".2" d="M78.4566929,86.3952128 C82.8957378,89.9191812 88.5023012,92.0278746 94.6034097,92.0278746 C108.986473,92.0278746 120.645669,80.3369859 120.645669,65.9158619 C120.645669,59.7976526 118.541661,54.1763668 115.027245,49.7247387"/>
      <rect width="1.48" height="118.003" x="94" y="5.937" fill="#E5E5E5" fill-rule="nonzero"/>
      <path fill="#FFFFFF" fill-rule="nonzero" d="M63.794337,68.4628513 C63.794337,76.2144302 66.4600639,83.3382768 70.9129866,88.9774459 L117.250189,42.5143376 C111.626238,38.0498867 104.521616,35.3769465 96.7909562,35.3769465 C78.567795,35.3769465 63.794337,50.1898591 63.794337,68.4628513" opacity=".2"/>
      <path fill="#FFFFFF" fill-rule="nonzero" d="M115.464567,66.675446 C115.464567,61.9532996 113.840317,57.613669 111.127942,54.1777003 L82.8976378,82.4843932 C86.3243345,85.2041079 90.6522537,86.8327526 95.3621688,86.8327526 C106.464112,86.8327526 115.464567,77.8079434 115.464567,66.675446 M134.701181,117.741678 C138.650505,122.844109 141.622937,128.712086 143.318449,134.94707 C145.057265,141.171715 145.469673,147.744759 144.699501,154.152908 C143.919019,160.565193 141.853885,166.817235 138.662877,172.430891 C135.478055,178.048166 131.180761,183.026021 126.097831,186.997968 C121.019025,190.975083 115.153034,193.940603 108.936496,195.650545 C102.721506,197.360488 96.1698864,197.836563 89.7734358,197.038452 C83.374408,196.254298 77.1357035,194.184068 71.5310765,190.986455 C65.9192325,187.800214 60.9564158,183.478319 56.995751,178.377439 C53.0335396,173.276558 50.0806972,167.390489 48.3784825,161.154472 C46.6685351,154.920005 46.2169482,148.349545 47.0051633,141.93571 C47.7908008,135.520841 49.8610898,129.267249 53.0567375,123.655143 C56.2461991,118.038902 60.5481318,113.062597 65.6331244,109.094269 C70.7145084,105.120772 76.5825609,102.159905 82.7980674,100.454614 C89.0130587,98.731749 95.5600381,98.3094323 101.955973,99.0708428 C108.350877,99.8746395 114.575663,101.951589 120.182351,105.135246 C125.770482,108.353018 130.725051,112.657856 134.701181,117.741678 M134.701181,117.741678 C130.721442,112.659923 125.764812,108.360255 120.176165,105.147135 C114.568961,101.967614 108.344176,99.895316 101.952364,99.097205 C95.5595222,98.3404472 89.0171829,98.7668992 82.8083778,100.493383 C76.5990575,102.20074 70.7387374,105.162642 65.6656015,109.135622 C60.587826,113.10395 56.2956881,118.076637 53.1139592,123.687708 C49.9265596,129.295162 47.8629723,135.539967 47.0835209,141.946048 C46.3009764,148.349545 46.7566874,154.90915 48.4671502,161.130693 C50.1698804,167.352754 53.1211763,173.225383 57.0782326,178.312825 C61.0285872,183.4044 65.9769697,187.722677 71.5764414,190.905817 C77.1681809,194.101362 83.3950281,196.172109 89.7832303,196.959365 C96.1693712,197.761611 102.711195,197.289671 108.918969,195.586448 C115.12829,193.883226 120.989125,190.925977 126.065354,186.956098 C131.145707,182.991905 135.443,178.021286 138.627822,172.410731 C141.820892,166.804829 143.889119,160.558473 144.67321,154.14929 C145.446991,147.745276 145.040253,141.174817 143.305562,134.950688 C141.615203,128.715188 138.647412,122.846694 134.701181,117.741678"/>
      <path fill="#FFFFFF" fill-rule="nonzero" d="M68.0944882,105.758107 C68.0944882,104.323421 69.2539591,103.160279 70.6847728,103.160279 C72.1155866,103.160279 73.2755906,104.323421 73.2755906,105.758107 C73.2755906,107.192793 72.1155866,108.355401 70.6847728,108.355401 C69.2539591,108.355401 68.0944882,107.192793 68.0944882,105.758107"/>
      <path fill="#7DACBC" fill-rule="nonzero" d="M130.267717,129.878049 C130.524472,130.366841 130.770827,130.862159 131.007874,131.362369 C130.770827,130.862159 130.524472,130.366841 130.267717,129.878049 M130.267717,129.878049 C129.207619,127.779821 127.966982,125.792601 126.566929,123.940767 C127.966982,125.792601 129.207619,127.779821 130.267717,129.878049 M132.488189,135.815331 C133.069197,137.027159 133.562636,138.265478 133.968504,139.526132 C133.562636,138.265478 133.069197,137.027159 132.488189,135.815331 M133.228346,140.268293 C133.546311,141.485478 133.794349,142.723294 133.968504,143.979094 C133.794349,142.723294 133.546311,141.485478 133.228346,140.268293 M131.007874,132.84669 C131.266373,133.336427 131.513746,133.830853 131.748031,134.33101 C131.513746,133.830853 131.266373,133.336427 131.007874,132.84669"/>
      <path fill="#A1D1E1" fill-rule="nonzero" d="M125.826772,123.940767 C124.076983,121.762235 122.089962,119.772157 119.905512,118.003484 C122.089962,119.772157 124.076983,121.762235 125.826772,123.940767"/>
      <g opacity=".8" transform="translate(133.969 143.237)">
        <mask id="b" fill="white">
          <use xlink:href="#a"/>
        </mask>
        <path fill="#E6F9FF" fill-rule="nonzero" d="M0.370818898,0.0111324042 C0.39080315,0.18554007 0.409307087,0.360689895 0.427070866,0.534355401 C0.409307087,0.360689895 0.39080315,0.18554007 0.370818898,0.0111324042" mask="url(#b)"/>
      </g>
      <path fill="#E6F9FF" fill-rule="nonzero" d="M114.861339,135.453793 L121.774938,128.521486 L114.861339,135.453793 Z" opacity=".8"/>
      <g opacity=".8" transform="translate(133.228 139.526)">
        <mask id="d" fill="white">
          <use xlink:href="#c"/>
        </mask>
        <path fill="#E6F9FF" fill-rule="nonzero" d="M0.164314961,0.195930314 C0.203543307,0.377759582 0.243511811,0.55958885 0.280519685,0.742160279 C0.243511811,0.55958885 0.203543307,0.377759582 0.164314961,0.195930314" mask="url(#d)"/>
      </g>
      <path fill="#7DACBC" fill-rule="nonzero" d="M121.398349,128.504651 L114.724409,135.255235 C116.955009,138.855856 118.245604,143.111558 118.245604,147.673376 C118.245604,147.679055 118.245094,147.684733 118.245094,147.689895 L133.968504,147.689895 C133.968504,146.350826 133.899611,145.027243 133.768459,143.722244 C133.756212,143.600932 133.742943,143.479621 133.730185,143.358825 C133.594951,142.132808 133.403072,140.924857 133.157098,139.73704 C133.131582,139.61005 133.104025,139.483577 133.076978,139.357103 C132.804979,138.104242 132.474293,136.873578 132.08492,135.669241 C131.921618,135.16438 131.748621,134.664681 131.565926,134.169112 C131.383232,133.674575 131.190842,133.184167 130.988756,132.698923 C130.786671,132.213678 130.574889,131.733595 130.354431,131.258674 C130.133464,130.783754 129.90331,130.313479 129.664482,129.849398 C128.588731,127.761296 127.330286,125.783665 125.909561,123.940767 L121.398349,128.504651 L121.398349,128.504651 Z"/>
      <path fill="#A1D1E1" fill-rule="nonzero" d="M94.8142798,124.593493 C103.143135,124.593493 110.450463,129.06306 114.570466,135.783687 L121.286655,128.916559 L125.826772,124.274238 C124.133473,122.052582 122.210599,120.02311 120.096672,118.219425 C119.794682,117.962131 119.488583,117.709037 119.17889,117.46067 C112.644511,112.222897 104.412211,109.097561 95.4649959,109.097561 C93.8050795,109.097561 92.1698156,109.204679 90.56434,109.413665 C89.9228684,109.496629 89.2860199,109.596397 88.6537929,109.711916 C87.706737,109.884671 86.7714933,110.093132 85.8496027,110.335723 C69.5621899,114.620458 57.4476785,129.535641 57.0044521,147.416532 C56.9962347,147.754164 56.992126,148.092322 56.992126,148.432056 L71.5153647,148.432056 L71.5153647,148.415252 C71.5153647,135.258597 81.9458212,124.593493 94.8142798,124.593493"/>
      <g opacity=".8" transform="translate(56.992 108.355)">
        <mask id="f" fill="white">
          <use xlink:href="#e"/>
        </mask>
        <path fill="#E6F9FF" fill-rule="nonzero" d="M38.0306181,15.5309147 C46.3883558,15.5309147 53.7210246,19.9363782 57.8553141,26.5606176 L64.5947934,19.7919791 L69.1506545,15.2162388 C67.4514833,13.026446 65.521942,11.0260799 63.4006836,9.24826429 C63.0976466,8.99466033 62.7904868,8.74519681 62.4797193,8.50039131 C55.9226807,3.33773891 47.6618324,0.257226893 38.6835906,0.257226893 C37.0179182,0.257226893 35.3769836,0.362808958 33.7659404,0.568797497 C33.1222446,0.650571841 32.4831872,0.748908082 31.848768,0.862771091 C30.8984277,1.03304805 29.959941,1.23851903 29.0348537,1.47763135 C12.6909595,5.70091395 0.534437562,20.4021814 0.0896741911,38.0266228 C0.0814282883,38.3594134 0.0773053365,38.6927215 0.0773053365,39.0275822 L14.6509074,39.0275822 L14.6509074,39.0110203 C14.6509074,26.0430585 25.1175347,15.5309147 38.0306181,15.5309147" mask="url(#f)"/>
      </g>
      <path fill="#A1D1E1" fill-rule="nonzero" d="M125.826772,123.940767 L121.385827,128.393728 L125.826772,123.940767 Z"/>
      <g opacity=".8" transform="translate(121.386 123.94)">
        <mask id="h" fill="white">
          <use xlink:href="#g"/>
        </mask>
        <path fill="#E6F9FF" fill-rule="nonzero" d="M4.75469764,0.207804878 L0.17460315,4.8008122 L4.75469764,0.207804878 Z" mask="url(#h)"/>
      </g>
      <path fill="#FFFFFF" fill-rule="nonzero" d="M114.724409,135.073171 L102.141732,147.689895 L114.724409,135.073171 Z"/>
      <g opacity=".8" transform="translate(102.142 135.073)">
        <mask id="j" fill="white">
          <use xlink:href="#i"/>
        </mask>
        <path fill="#E6F9FF" fill-rule="nonzero" d="M12.9279458,0.169925017 L0.091128189,13.0414779 L12.9279458,0.169925017 Z" mask="url(#j)"/>
      </g>
      <path fill="#FFFFFF" fill-rule="nonzero" d="M118.425197,147.673135 C118.425197,143.044523 117.095742,138.725987 114.79941,135.073171 L102.141732,147.689895 L118.425197,147.689895 C118.425197,147.684658 118.425197,147.678896 118.425197,147.673135"/>
      <g opacity=".8" transform="translate(114.724 123.94)">
        <mask id="l" fill="white">
          <use xlink:href="#k"/>
        </mask>
        <path fill="#E6F9FF" fill-rule="nonzero" d="M12.9673814,1.70120263 C12.5964737,1.193565 12.2138419,0.694148217 11.8184202,0.205007505 L7.10746583,4.74805601 L0.138024567,11.4670614 C0.487615748,12.0055272 0.812692913,12.5604347 1.11645354,13.1271597 L12.9673814,1.70120263 L12.9673814,1.70120263 Z" mask="url(#l)"/>
      </g>
      <path fill="#E5E5E5" fill-rule="nonzero" d="M118.816383,147.673362 C118.816383,147.679046 118.816383,147.684729 118.816383,147.689895 L134.708661,147.689895 C134.708661,146.349688 134.639024,145.02498 134.506455,143.718871 C134.494075,143.597457 134.481179,143.476042 134.467768,143.354111 C134.331072,142.128085 134.137119,140.919108 133.88952,139.730281 C133.862696,139.603183 133.835357,139.476602 133.807503,139.350021 C133.532564,138.096095 133.198304,136.864386 132.804724,135.659025 C132.64069,135.153734 132.465307,134.653611 132.280638,134.15762 C132.095971,133.662663 131.900986,133.171839 131.697748,132.686182 C131.493479,132.200524 131.279408,131.720033 131.056053,131.244709 C130.833213,130.769385 130.600573,130.29871 130.358647,129.834236 C129.56117,128.300799 128.663107,126.828844 127.674772,125.425087 L116.204724,136.913468 C117.871378,140.136373 118.816383,143.793786 118.816383,147.673362"/>
      <g opacity=".8" transform="translate(116.205 125.425)">
        <mask id="n" fill="white">
          <use xlink:href="#m"/>
        </mask>
        <path fill="#E6F9FF" fill-rule="nonzero" d="M2.65171697,22.6796422 C2.65171697,22.6853939 2.65171697,22.6911457 2.65171697,22.6963746 L18.4874891,22.6963746 C18.4874891,21.3400092 18.4180993,19.9993303 18.2860018,18.6774754 C18.2736658,18.5545974 18.2608159,18.4317192 18.2474519,18.3083181 C18.1112423,17.0675105 17.917979,15.8439581 17.6712598,14.6407982 C17.6445319,14.5121683 17.61729,14.3840614 17.5895341,14.2559544 C17.315573,12.9869109 16.9825022,11.7403515 16.5903215,10.5204593 C16.4268701,10.0090771 16.2521107,9.50292383 16.0680993,9.00095363 C15.884088,8.50002913 15.6897966,8.00328775 15.4872813,7.51177526 C15.283738,7.02026275 15.0704287,6.53397909 14.8478675,6.05292429 C14.6258202,5.57186949 14.394007,5.09552066 14.1529418,4.62544647 C13.3583005,3.07352185 12.4634296,1.58382064 11.4786089,0.163140323 L0.049343832,11.7900257 C1.71007218,15.0517864 2.65171697,18.7532939 2.65171697,22.6796422" mask="url(#n)"/>
      </g>
      <g opacity=".8" transform="translate(102.142 135.073)">
        <mask id="p" fill="white">
          <use xlink:href="#o"/>
        </mask>
        <path fill="#E6F9FF" fill-rule="nonzero" d="M12.635338,0.169925017 L0.0890656166,13.0414779 L2.72822047,13.0414779 L13.5916214,1.89589296 C13.2942152,1.30649895 12.9770166,0.729929477 12.635338,0.169925017" mask="url(#p)"/>
      </g>
      <path fill="#E5E5E5" fill-rule="nonzero" d="M118.425197,146.931794 C118.425197,143.191247 117.483552,139.664901 115.822824,136.557491 L105.102362,146.947735 L118.425197,146.947735 C118.425197,146.942754 118.425197,146.937274 118.425197,146.931794"/>
      <g opacity=".8" transform="translate(105.102 136.557)">
        <mask id="r" fill="white">
          <use xlink:href="#q"/>
        </mask>
        <path fill="#E6F9FF" fill-rule="nonzero" d="M13.624956,10.8156367 C13.624956,7.01594473 12.6707559,3.43384067 10.9878845,0.277298068 L0.124483523,10.8318293 L13.624956,10.8318293 C13.624956,10.8267691 13.624956,10.8212029 13.624956,10.8156367" mask="url(#r)"/>
      </g>
      <path fill="#FFFFFF" fill-rule="nonzero" d="M95.0260248,124.682927 C82.1952158,124.682927 71.7952756,135.308019 71.7952756,148.415316 L71.7952756,148.432056 L102.389299,148.432056 L114.724409,135.831139 C110.616461,129.135725 103.330512,124.682927 95.0260248,124.682927"/>
      <path fill="#E6F9FF" fill-rule="nonzero" d="M95.3217207,124.687057 C82.4490417,124.687057 72.0151634,135.17333 72.0151634,148.109377 L72.0151634,148.125898 L102.709024,148.125898 L115.084387,135.689616 C110.963033,129.081679 103.653308,124.687057 95.3217207,124.687057"/>
      <path fill="#A1D1E1" fill-rule="nonzero" d="M94.8576693,7.29841563e-15 C91.5227721,7.29841563e-15 88.8188976,2.71119063 88.8188976,6.05459865 C88.8188976,7.75506319 89.5190674,9.29015479 90.6438462,10.3902439 L99.1811024,1.82988676 C98.0844939,0.702064328 96.5525204,0 94.8576693,0"/>
      <path fill="#FFFFFF" fill-rule="nonzero" d="M94.5582986,12.6167247 C97.9284998,12.6167247 100.661417,9.87641213 100.661417,6.49657208 C100.661417,4.83494285 100.00032,3.32956179 98.9281706,2.22648084 L90.2992126,10.8787883 C91.3987994,11.9533189 92.9006352,12.6167247 94.5582986,12.6167247"/>
      <rect width="94.74" height="2.226" x="50.331" y="142.495" fill="#7DACBC" fill-rule="nonzero"/>
      <path stroke="#124354" stroke-width=".35" d="M25.9055118,161.04878 L153.952756,161.04878"/>
      <path stroke="#124354" stroke-width=".2" d="M127.307087,156.595819 L144.330709,156.595819 M58.4724409,140.268293 L134.708661,140.268293"/>
    </g>
    <path fill="#083749" fill-rule="nonzero" d="M37,243 L47.4965287,230 C47.4965287,230 111.353914,230.462944 110.998522,230.462944 L100.529813,243 L37,242.277778 L37,243 Z" opacity=".2"/>
    <rect width="78" height="2" y="201" fill="#BADDE5" fill-rule="nonzero"/>
    <path fill="#E5E5E5" fill-rule="nonzero" d="M69.8266667,77.5512821 C69.8266667,72.8287156 73.6712252,69 78.4133333,69 C83.1554417,69 87,72.8287156 87,77.5512821 C87,82.2738488 83.1554417,86.1025641 78.4133333,86.1025641 C73.6712252,86.1025641 69.8266667,82.2738488 69.8266667,77.5512821 M31,94.6538462 C31,92.8061848 32.5042926,91.3076923 34.3602582,91.3076923 C36.2157074,91.3076923 37.72,92.8061848 37.72,94.6538462 C37.72,96.5015075 36.2157074,98 34.3602582,98 C32.5042926,98 31,96.5015075 31,94.6538462"/>
    <path fill="#6594A4" fill-rule="nonzero" d="M94,69 C94,66.790443 95.7904429,65 98,65 C100.208561,65 102,66.790443 102,69 C102,71.209557 100.208561,73 98,73 C95.7904429,73 94,71.209557 94,69"/>
    <path fill="#7DACBC" fill-rule="nonzero" d="M77.7614645,78 C60.2196958,78 46,92.2202134 46,109.761983 C46,120.05093 50.894269,129.196085 58.4791428,135 L103,90.4796607 C97.1955671,82.8937513 88.0509298,78 77.7614645,78"/>
    <path fill="#E5E5E5" fill-rule="nonzero" d="M108,109.887513 C108,102.78351 105.617622,96.2371721 101.60995,91 L58,134.609442 C63.2366648,138.617115 69.784018,141 76.8880206,141 C94.0705735,141 108,127.070574 108,109.887513"/>
    <path fill="#7DACBC" fill-opacity=".6" fill-rule="nonzero" d="M111,110.77691 C111,102.962949 108.37919,95.7607399 103.970903,90 L56,137.97052 C61.7608472,142.378724 68.9621633,145 76.7762701,145 C95.6776685,145 111,129.67744 111,110.77691"/>
    <g opacity=".18" transform="translate(53 84)">
      <mask id="t" fill="white">
        <use xlink:href="#s"/>
      </mask>
      <path fill="#7DACBC" fill-rule="nonzero" d="M65.9969062,25.2106977 C65.9969062,15.7735659 62.8541718,7.07603101 57.5690156,0.117899225 L0.051046875,58.0552403 C6.95835938,63.3788838 15.5930156,66.5445038 24.9619218,66.5445038 C47.6257032,66.5445038 65.9969062,48.0384806 65.9969062,25.2106977" mask="url(#t)"/>
    </g>
    <path fill="#B7E8F8" fill-rule="nonzero" d="M77.1322076,21 C68.7748318,21 62,27.7749609 62,36.1319812 C62,40.9445503 64.2490136,45.2285654 67.7496521,48 L89,26.7497617 C86.2286186,23.2485418 81.9446847,21 77.1322076,21"/>
    <polygon fill="#FFFFFF" fill-rule="nonzero" points="78 167 76 167 76.951 0 76.935 0"/>
    <path fill="#6594A4" fill-rule="nonzero" d="M92,36.1857326 C92,32.7141897 90.8028967,29.5248042 88.8036945,27 L68,47.8045683 C70.525202,49.8038545 73.7149575,51 77.1853469,51 C85.3665585,51 92,44.3672874 92,36.1857326"/>
    <path stroke="#FFFFFF" stroke-width=".12" d="M31,110.000257 C31,84.594893 51.5948933,64 77.0002575,64 C102.405107,64 123,84.594893 123,110.000257 C123,135.405107 102.405107,156 77.0002575,156 C51.5948933,156 31,135.405107 31,110.000257 Z"/>
    <path stroke="#124354" stroke-width=".29" d="M35.184,232 L120,232 M27,235.2 L76.848,235.2"/>
    <path fill="#B8D6DD" fill-rule="nonzero" d="M87.9272043,167.161899 C84.8167541,166.404409 81.5669994,166 78.2226411,166 C77.4767364,166 76.7360288,166.023331 76,166.062735 C78.5636266,166.201168 81.0648773,166.572914 83.4814024,167.161899 C101.316591,171.505671 114.554197,187.546208 114.554197,206.673737 C114.554197,210.841746 113.924207,214.861472 112.756229,218.647885 C111.368897,223.147717 109.221106,227.315208 106.459957,231 L110.90576,231 C113.666909,227.315208 115.81418,223.147717 117.202031,218.647885 C118.36949,214.861472 119,210.841746 119,206.673737 C119,187.546208 105.761874,171.505671 87.9272043,167.161899"/>
    <path fill="#E6F9FF" fill-rule="nonzero" d="M106.748092,232 C109.489496,228.121936 111.622846,223.7364 113,219 L40,219 C41.3776702,223.7364 43.5105038,228.121936 46.2519074,232 L106.748092,232 L106.748092,232 Z" opacity=".6"/>
    <g fill-rule="nonzero" transform="translate(38 166)">
      <path fill="#E6F9FF" d="M45.3929128,1.35877451 C43.0216107,0.769019609 40.5671678,0.395941177 38.0515168,0.257205883 C35.5358658,0.395941177 33.0814229,0.769019609 30.7096107,1.35877451 C18.8780939,4.30183333 9.11030875,12.6025686 4.0218792,23.5938333 C1.55774496,28.9733333 0.218818792,34.8054117 0.218818792,40.957049 C0.218818792,45.1341765 0.837020134,49.1632157 1.98263087,52.9573922 L74.1198928,52.9573922 C75.2660134,49.1632157 75.8842151,45.1341765 75.8842151,40.957049 C75.8842151,21.7876765 62.8943355,5.71152941 45.3929128,1.35877451 Z"/>
      <path fill="#124354" d="M15.8642906,20.7039083 C14.3326228,20.7039083 13.0859065,21.9647495 13.0859065,23.5142999 C13.0859065,25.0634195 14.3326228,26.3246917 15.8642906,26.3246917 C17.3959585,26.3246917 18.6418228,25.0634195 18.6418228,23.5142999 C18.6418228,21.9647495 17.3959585,20.7039083 15.8642906,20.7039083 M15.8642906,26.8732394 C14.0331894,26.8732394 12.5436893,25.3667798 12.5436893,23.5142999 C12.5436893,21.662251 14.0331894,20.1549296 15.8642906,20.1549296 C17.6953918,20.1549296 19.184466,21.662251 19.184466,23.5142999 C19.184466,25.3667798 17.6953918,26.8732394 15.8642906,26.8732394"/>
      <polygon fill="#124354" points="3.689 23.141 12.544 23.141 12.544 23.803 3.689 23.803"/>
      <path fill="#124354" d="M12.1745443,28.9151759 C10.6428765,28.9151759 9.3970121,30.1760171 9.3970121,31.7255675 C9.3970121,33.2746872 10.6428765,34.5359593 12.1745443,34.5359593 C13.7062121,34.5359593 14.9529284,33.2746872 14.9529284,31.7255675 C14.9529284,30.1760171 13.7062121,28.9151759 12.1745443,28.9151759 M12.1745443,35.084507 C10.3434431,35.084507 8.85436893,33.5776166 8.85436893,31.7255675 C8.85436893,29.8726568 10.3434431,28.3661972 12.1745443,28.3661972 C14.0056455,28.3661972 15.4951456,29.8726568 15.4951456,31.7255675 C15.4951456,33.5776166 14.0056455,35.084507 12.1745443,35.084507"/>
      <polygon fill="#124354" points=".738 32.099 9.592 32.099 9.592 32.761 .738 32.761"/>
    </g>
  </g>
</svg>
